%TF.GenerationSoftware,KiCad,Pcbnew,(6.0.9)*%
%TF.CreationDate,2022-11-11T17:54:53+11:00*%
%TF.ProjectId,Tomie2-Macro-Pad,546f6d69-6532-42d4-9d61-63726f2d5061,rev?*%
%TF.SameCoordinates,Original*%
%TF.FileFunction,Legend,Bot*%
%TF.FilePolarity,Positive*%
%FSLAX46Y46*%
G04 Gerber Fmt 4.6, Leading zero omitted, Abs format (unit mm)*
G04 Created by KiCad (PCBNEW (6.0.9)) date 2022-11-11 17:54:53*
%MOMM*%
%LPD*%
G01*
G04 APERTURE LIST*
%ADD10C,0.150000*%
%ADD11C,0.120000*%
G04 APERTURE END LIST*
D10*
%TO.C,D1*%
X100083630Y-97686904D02*
X99083630Y-97686904D01*
X99083630Y-97925000D01*
X99131250Y-98067857D01*
X99226488Y-98163095D01*
X99321726Y-98210714D01*
X99512202Y-98258333D01*
X99655059Y-98258333D01*
X99845535Y-98210714D01*
X99940773Y-98163095D01*
X100036011Y-98067857D01*
X100083630Y-97925000D01*
X100083630Y-97686904D01*
X100083630Y-99210714D02*
X100083630Y-98639285D01*
X100083630Y-98925000D02*
X99083630Y-98925000D01*
X99226488Y-98829761D01*
X99321726Y-98734523D01*
X99369345Y-98639285D01*
%TO.C,R3*%
X50870380Y-100694833D02*
X50394190Y-100361500D01*
X50870380Y-100123404D02*
X49870380Y-100123404D01*
X49870380Y-100504357D01*
X49918000Y-100599595D01*
X49965619Y-100647214D01*
X50060857Y-100694833D01*
X50203714Y-100694833D01*
X50298952Y-100647214D01*
X50346571Y-100599595D01*
X50394190Y-100504357D01*
X50394190Y-100123404D01*
X49870380Y-101028166D02*
X49870380Y-101647214D01*
X50251333Y-101313880D01*
X50251333Y-101456738D01*
X50298952Y-101551976D01*
X50346571Y-101599595D01*
X50441809Y-101647214D01*
X50679904Y-101647214D01*
X50775142Y-101599595D01*
X50822761Y-101551976D01*
X50870380Y-101456738D01*
X50870380Y-101171023D01*
X50822761Y-101075785D01*
X50775142Y-101028166D01*
%TO.C,C1*%
X73253142Y-95442333D02*
X73300761Y-95394714D01*
X73348380Y-95251857D01*
X73348380Y-95156619D01*
X73300761Y-95013761D01*
X73205523Y-94918523D01*
X73110285Y-94870904D01*
X72919809Y-94823285D01*
X72776952Y-94823285D01*
X72586476Y-94870904D01*
X72491238Y-94918523D01*
X72396000Y-95013761D01*
X72348380Y-95156619D01*
X72348380Y-95251857D01*
X72396000Y-95394714D01*
X72443619Y-95442333D01*
X73348380Y-96394714D02*
X73348380Y-95823285D01*
X73348380Y-96109000D02*
X72348380Y-96109000D01*
X72491238Y-96013761D01*
X72586476Y-95918523D01*
X72634095Y-95823285D01*
%TO.C,D2*%
X117133630Y-101655654D02*
X116133630Y-101655654D01*
X116133630Y-101893750D01*
X116181250Y-102036607D01*
X116276488Y-102131845D01*
X116371726Y-102179464D01*
X116562202Y-102227083D01*
X116705059Y-102227083D01*
X116895535Y-102179464D01*
X116990773Y-102131845D01*
X117086011Y-102036607D01*
X117133630Y-101893750D01*
X117133630Y-101655654D01*
X116228869Y-102608035D02*
X116181250Y-102655654D01*
X116133630Y-102750892D01*
X116133630Y-102988988D01*
X116181250Y-103084226D01*
X116228869Y-103131845D01*
X116324107Y-103179464D01*
X116419345Y-103179464D01*
X116562202Y-103131845D01*
X117133630Y-102560416D01*
X117133630Y-103179464D01*
%TO.C,SW1*%
X51752333Y-124991761D02*
X51609476Y-125039380D01*
X51371380Y-125039380D01*
X51276142Y-124991761D01*
X51228523Y-124944142D01*
X51180904Y-124848904D01*
X51180904Y-124753666D01*
X51228523Y-124658428D01*
X51276142Y-124610809D01*
X51371380Y-124563190D01*
X51561857Y-124515571D01*
X51657095Y-124467952D01*
X51704714Y-124420333D01*
X51752333Y-124325095D01*
X51752333Y-124229857D01*
X51704714Y-124134619D01*
X51657095Y-124087000D01*
X51561857Y-124039380D01*
X51323761Y-124039380D01*
X51180904Y-124087000D01*
X50847571Y-124039380D02*
X50609476Y-125039380D01*
X50419000Y-124325095D01*
X50228523Y-125039380D01*
X49990428Y-124039380D01*
X49085666Y-125039380D02*
X49657095Y-125039380D01*
X49371380Y-125039380D02*
X49371380Y-124039380D01*
X49466619Y-124182238D01*
X49561857Y-124277476D01*
X49657095Y-124325095D01*
%TO.C,D4*%
X117133630Y-120705654D02*
X116133630Y-120705654D01*
X116133630Y-120943750D01*
X116181250Y-121086607D01*
X116276488Y-121181845D01*
X116371726Y-121229464D01*
X116562202Y-121277083D01*
X116705059Y-121277083D01*
X116895535Y-121229464D01*
X116990773Y-121181845D01*
X117086011Y-121086607D01*
X117133630Y-120943750D01*
X117133630Y-120705654D01*
X116466964Y-122134226D02*
X117133630Y-122134226D01*
X116086011Y-121896130D02*
X116800297Y-121658035D01*
X116800297Y-122277083D01*
%TO.C,C7*%
X57986142Y-115215333D02*
X58033761Y-115167714D01*
X58081380Y-115024857D01*
X58081380Y-114929619D01*
X58033761Y-114786761D01*
X57938523Y-114691523D01*
X57843285Y-114643904D01*
X57652809Y-114596285D01*
X57509952Y-114596285D01*
X57319476Y-114643904D01*
X57224238Y-114691523D01*
X57129000Y-114786761D01*
X57081380Y-114929619D01*
X57081380Y-115024857D01*
X57129000Y-115167714D01*
X57176619Y-115215333D01*
X57081380Y-115548666D02*
X57081380Y-116215333D01*
X58081380Y-115786761D01*
%TO.C,C5*%
X79824642Y-105245833D02*
X79872261Y-105198214D01*
X79919880Y-105055357D01*
X79919880Y-104960119D01*
X79872261Y-104817261D01*
X79777023Y-104722023D01*
X79681785Y-104674404D01*
X79491309Y-104626785D01*
X79348452Y-104626785D01*
X79157976Y-104674404D01*
X79062738Y-104722023D01*
X78967500Y-104817261D01*
X78919880Y-104960119D01*
X78919880Y-105055357D01*
X78967500Y-105198214D01*
X79015119Y-105245833D01*
X78919880Y-106150595D02*
X78919880Y-105674404D01*
X79396071Y-105626785D01*
X79348452Y-105674404D01*
X79300833Y-105769642D01*
X79300833Y-106007738D01*
X79348452Y-106102976D01*
X79396071Y-106150595D01*
X79491309Y-106198214D01*
X79729404Y-106198214D01*
X79824642Y-106150595D01*
X79872261Y-106102976D01*
X79919880Y-106007738D01*
X79919880Y-105769642D01*
X79872261Y-105674404D01*
X79824642Y-105626785D01*
%TO.C,USB1*%
X52219345Y-91971880D02*
X52219345Y-92781404D01*
X52171726Y-92876642D01*
X52124107Y-92924261D01*
X52028869Y-92971880D01*
X51838392Y-92971880D01*
X51743154Y-92924261D01*
X51695535Y-92876642D01*
X51647916Y-92781404D01*
X51647916Y-91971880D01*
X51219345Y-92924261D02*
X51076488Y-92971880D01*
X50838392Y-92971880D01*
X50743154Y-92924261D01*
X50695535Y-92876642D01*
X50647916Y-92781404D01*
X50647916Y-92686166D01*
X50695535Y-92590928D01*
X50743154Y-92543309D01*
X50838392Y-92495690D01*
X51028869Y-92448071D01*
X51124107Y-92400452D01*
X51171726Y-92352833D01*
X51219345Y-92257595D01*
X51219345Y-92162357D01*
X51171726Y-92067119D01*
X51124107Y-92019500D01*
X51028869Y-91971880D01*
X50790773Y-91971880D01*
X50647916Y-92019500D01*
X49886011Y-92448071D02*
X49743154Y-92495690D01*
X49695535Y-92543309D01*
X49647916Y-92638547D01*
X49647916Y-92781404D01*
X49695535Y-92876642D01*
X49743154Y-92924261D01*
X49838392Y-92971880D01*
X50219345Y-92971880D01*
X50219345Y-91971880D01*
X49886011Y-91971880D01*
X49790773Y-92019500D01*
X49743154Y-92067119D01*
X49695535Y-92162357D01*
X49695535Y-92257595D01*
X49743154Y-92352833D01*
X49790773Y-92400452D01*
X49886011Y-92448071D01*
X50219345Y-92448071D01*
X48695535Y-92971880D02*
X49266964Y-92971880D01*
X48981250Y-92971880D02*
X48981250Y-91971880D01*
X49076488Y-92114738D01*
X49171726Y-92209976D01*
X49266964Y-92257595D01*
%TO.C,R1*%
X60395380Y-100821833D02*
X59919190Y-100488500D01*
X60395380Y-100250404D02*
X59395380Y-100250404D01*
X59395380Y-100631357D01*
X59443000Y-100726595D01*
X59490619Y-100774214D01*
X59585857Y-100821833D01*
X59728714Y-100821833D01*
X59823952Y-100774214D01*
X59871571Y-100726595D01*
X59919190Y-100631357D01*
X59919190Y-100250404D01*
X60395380Y-101774214D02*
X60395380Y-101202785D01*
X60395380Y-101488500D02*
X59395380Y-101488500D01*
X59538238Y-101393261D01*
X59633476Y-101298023D01*
X59681095Y-101202785D01*
%TO.C,Y1*%
X70543690Y-93196190D02*
X70543690Y-93672380D01*
X70877023Y-92672380D02*
X70543690Y-93196190D01*
X70210357Y-92672380D01*
X69353214Y-93672380D02*
X69924642Y-93672380D01*
X69638928Y-93672380D02*
X69638928Y-92672380D01*
X69734166Y-92815238D01*
X69829404Y-92910476D01*
X69924642Y-92958095D01*
%TO.C,R4*%
X76526380Y-116292333D02*
X76050190Y-115959000D01*
X76526380Y-115720904D02*
X75526380Y-115720904D01*
X75526380Y-116101857D01*
X75574000Y-116197095D01*
X75621619Y-116244714D01*
X75716857Y-116292333D01*
X75859714Y-116292333D01*
X75954952Y-116244714D01*
X76002571Y-116197095D01*
X76050190Y-116101857D01*
X76050190Y-115720904D01*
X75859714Y-117149476D02*
X76526380Y-117149476D01*
X75478761Y-116911380D02*
X76193047Y-116673285D01*
X76193047Y-117292333D01*
%TO.C,C2*%
X67596142Y-95564333D02*
X67643761Y-95516714D01*
X67691380Y-95373857D01*
X67691380Y-95278619D01*
X67643761Y-95135761D01*
X67548523Y-95040523D01*
X67453285Y-94992904D01*
X67262809Y-94945285D01*
X67119952Y-94945285D01*
X66929476Y-94992904D01*
X66834238Y-95040523D01*
X66739000Y-95135761D01*
X66691380Y-95278619D01*
X66691380Y-95373857D01*
X66739000Y-95516714D01*
X66786619Y-95564333D01*
X66786619Y-95945285D02*
X66739000Y-95992904D01*
X66691380Y-96088142D01*
X66691380Y-96326238D01*
X66739000Y-96421476D01*
X66786619Y-96469095D01*
X66881857Y-96516714D01*
X66977095Y-96516714D01*
X67119952Y-96469095D01*
X67691380Y-95897666D01*
X67691380Y-96516714D01*
%TO.C,R2*%
X54172380Y-100639583D02*
X53696190Y-100306250D01*
X54172380Y-100068154D02*
X53172380Y-100068154D01*
X53172380Y-100449107D01*
X53220000Y-100544345D01*
X53267619Y-100591964D01*
X53362857Y-100639583D01*
X53505714Y-100639583D01*
X53600952Y-100591964D01*
X53648571Y-100544345D01*
X53696190Y-100449107D01*
X53696190Y-100068154D01*
X53267619Y-101020535D02*
X53220000Y-101068154D01*
X53172380Y-101163392D01*
X53172380Y-101401488D01*
X53220000Y-101496726D01*
X53267619Y-101544345D01*
X53362857Y-101591964D01*
X53458095Y-101591964D01*
X53600952Y-101544345D01*
X54172380Y-100972916D01*
X54172380Y-101591964D01*
%TO.C,C3*%
X58774666Y-106881142D02*
X58822285Y-106928761D01*
X58965142Y-106976380D01*
X59060380Y-106976380D01*
X59203238Y-106928761D01*
X59298476Y-106833523D01*
X59346095Y-106738285D01*
X59393714Y-106547809D01*
X59393714Y-106404952D01*
X59346095Y-106214476D01*
X59298476Y-106119238D01*
X59203238Y-106024000D01*
X59060380Y-105976380D01*
X58965142Y-105976380D01*
X58822285Y-106024000D01*
X58774666Y-106071619D01*
X58441333Y-105976380D02*
X57822285Y-105976380D01*
X58155619Y-106357333D01*
X58012761Y-106357333D01*
X57917523Y-106404952D01*
X57869904Y-106452571D01*
X57822285Y-106547809D01*
X57822285Y-106785904D01*
X57869904Y-106881142D01*
X57917523Y-106928761D01*
X58012761Y-106976380D01*
X58298476Y-106976380D01*
X58393714Y-106928761D01*
X58441333Y-106881142D01*
%TO.C,C6*%
X73194166Y-117932642D02*
X73241785Y-117980261D01*
X73384642Y-118027880D01*
X73479880Y-118027880D01*
X73622738Y-117980261D01*
X73717976Y-117885023D01*
X73765595Y-117789785D01*
X73813214Y-117599309D01*
X73813214Y-117456452D01*
X73765595Y-117265976D01*
X73717976Y-117170738D01*
X73622738Y-117075500D01*
X73479880Y-117027880D01*
X73384642Y-117027880D01*
X73241785Y-117075500D01*
X73194166Y-117123119D01*
X72337023Y-117027880D02*
X72527500Y-117027880D01*
X72622738Y-117075500D01*
X72670357Y-117123119D01*
X72765595Y-117265976D01*
X72813214Y-117456452D01*
X72813214Y-117837404D01*
X72765595Y-117932642D01*
X72717976Y-117980261D01*
X72622738Y-118027880D01*
X72432261Y-118027880D01*
X72337023Y-117980261D01*
X72289404Y-117932642D01*
X72241785Y-117837404D01*
X72241785Y-117599309D01*
X72289404Y-117504071D01*
X72337023Y-117456452D01*
X72432261Y-117408833D01*
X72622738Y-117408833D01*
X72717976Y-117456452D01*
X72765595Y-117504071D01*
X72813214Y-117599309D01*
%TO.C,U1*%
X69722904Y-116886880D02*
X69722904Y-117696404D01*
X69675285Y-117791642D01*
X69627666Y-117839261D01*
X69532428Y-117886880D01*
X69341952Y-117886880D01*
X69246714Y-117839261D01*
X69199095Y-117791642D01*
X69151476Y-117696404D01*
X69151476Y-116886880D01*
X68151476Y-117886880D02*
X68722904Y-117886880D01*
X68437190Y-117886880D02*
X68437190Y-116886880D01*
X68532428Y-117029738D01*
X68627666Y-117124976D01*
X68722904Y-117172595D01*
%TO.C,D3*%
X100083630Y-116736904D02*
X99083630Y-116736904D01*
X99083630Y-116975000D01*
X99131250Y-117117857D01*
X99226488Y-117213095D01*
X99321726Y-117260714D01*
X99512202Y-117308333D01*
X99655059Y-117308333D01*
X99845535Y-117260714D01*
X99940773Y-117213095D01*
X100036011Y-117117857D01*
X100083630Y-116975000D01*
X100083630Y-116736904D01*
X99083630Y-117641666D02*
X99083630Y-118260714D01*
X99464583Y-117927380D01*
X99464583Y-118070238D01*
X99512202Y-118165476D01*
X99559821Y-118213095D01*
X99655059Y-118260714D01*
X99893154Y-118260714D01*
X99988392Y-118213095D01*
X100036011Y-118165476D01*
X100083630Y-118070238D01*
X100083630Y-117784523D01*
X100036011Y-117689285D01*
X99988392Y-117641666D01*
%TO.C,F1*%
X43955571Y-108124666D02*
X43955571Y-107791333D01*
X44479380Y-107791333D02*
X43479380Y-107791333D01*
X43479380Y-108267523D01*
X44479380Y-109172285D02*
X44479380Y-108600857D01*
X44479380Y-108886571D02*
X43479380Y-108886571D01*
X43622238Y-108791333D01*
X43717476Y-108696095D01*
X43765095Y-108600857D01*
%TO.C,C4*%
X63378142Y-100821833D02*
X63425761Y-100774214D01*
X63473380Y-100631357D01*
X63473380Y-100536119D01*
X63425761Y-100393261D01*
X63330523Y-100298023D01*
X63235285Y-100250404D01*
X63044809Y-100202785D01*
X62901952Y-100202785D01*
X62711476Y-100250404D01*
X62616238Y-100298023D01*
X62521000Y-100393261D01*
X62473380Y-100536119D01*
X62473380Y-100631357D01*
X62521000Y-100774214D01*
X62568619Y-100821833D01*
X62806714Y-101678976D02*
X63473380Y-101678976D01*
X62425761Y-101440880D02*
X63140047Y-101202785D01*
X63140047Y-101821833D01*
D11*
%TO.C,D1*%
X98631250Y-100675000D02*
X98631250Y-96775000D01*
X98631250Y-100675000D02*
X96631250Y-100675000D01*
X96631250Y-100675000D02*
X96631250Y-96775000D01*
%TO.C,R3*%
X48033000Y-101088564D02*
X48033000Y-100634436D01*
X49503000Y-101088564D02*
X49503000Y-100634436D01*
%TO.C,C1*%
X75311000Y-95347748D02*
X75311000Y-95870252D01*
X73841000Y-95347748D02*
X73841000Y-95870252D01*
%TO.C,D2*%
X117681250Y-100675000D02*
X117681250Y-96775000D01*
X115681250Y-100675000D02*
X115681250Y-96775000D01*
X117681250Y-100675000D02*
X115681250Y-100675000D01*
D10*
%TO.C,SW1*%
X47819000Y-123123000D02*
X53019000Y-123123000D01*
X47819000Y-117923000D02*
X47819000Y-123123000D01*
X53019000Y-117923000D02*
X47819000Y-117923000D01*
X53019000Y-123123000D02*
X53019000Y-117923000D01*
X51419000Y-120523000D02*
G75*
G03*
X51419000Y-120523000I-1000000J0D01*
G01*
D11*
%TO.C,D4*%
X117681250Y-119725000D02*
X117681250Y-115825000D01*
X115681250Y-119725000D02*
X115681250Y-115825000D01*
X117681250Y-119725000D02*
X115681250Y-119725000D01*
%TO.C,C7*%
X58574000Y-115120748D02*
X58574000Y-115643252D01*
X60044000Y-115120748D02*
X60044000Y-115643252D01*
%TO.C,C5*%
X77052500Y-105673752D02*
X77052500Y-105151248D01*
X78522500Y-105673752D02*
X78522500Y-105151248D01*
D10*
%TO.C,USB1*%
X46631250Y-95937500D02*
X54331250Y-95937500D01*
X46631250Y-90487500D02*
X46631250Y-95937500D01*
X54331250Y-90487500D02*
X54331250Y-95937500D01*
D11*
%TO.C,R1*%
X59028000Y-101215564D02*
X59028000Y-100761436D01*
X57558000Y-101215564D02*
X57558000Y-100761436D01*
%TO.C,Y1*%
X72067500Y-97320000D02*
X68067500Y-97320000D01*
X72067500Y-94020000D02*
X72067500Y-97320000D01*
%TO.C,R4*%
X78459000Y-116231936D02*
X78459000Y-116686064D01*
X76989000Y-116231936D02*
X76989000Y-116686064D01*
%TO.C,C2*%
X64824000Y-95992252D02*
X64824000Y-95469748D01*
X66294000Y-95992252D02*
X66294000Y-95469748D01*
%TO.C,R2*%
X52805000Y-101033314D02*
X52805000Y-100579186D01*
X51335000Y-101033314D02*
X51335000Y-100579186D01*
%TO.C,C3*%
X58869252Y-108939000D02*
X58346748Y-108939000D01*
X58869252Y-107469000D02*
X58346748Y-107469000D01*
%TO.C,C6*%
X73288752Y-118520500D02*
X72766248Y-118520500D01*
X73288752Y-119990500D02*
X72766248Y-119990500D01*
D10*
%TO.C,U1*%
X74136000Y-115159500D02*
X74136000Y-114484500D01*
X63786000Y-115159500D02*
X63786000Y-114584500D01*
X63786000Y-114584500D02*
X62511000Y-114584500D01*
X74136000Y-115159500D02*
X73461000Y-115159500D01*
X74136000Y-104809500D02*
X73461000Y-104809500D01*
X63786000Y-115159500D02*
X64461000Y-115159500D01*
X63786000Y-104809500D02*
X64461000Y-104809500D01*
X74136000Y-104809500D02*
X74136000Y-105484500D01*
X63786000Y-104809500D02*
X63786000Y-105484500D01*
D11*
%TO.C,D3*%
X98631250Y-119725000D02*
X96631250Y-119725000D01*
X98631250Y-119725000D02*
X98631250Y-115825000D01*
X96631250Y-119725000D02*
X96631250Y-115825000D01*
%TO.C,F1*%
X44937000Y-107855936D02*
X44937000Y-109060064D01*
X46757000Y-107855936D02*
X46757000Y-109060064D01*
%TO.C,C4*%
X62076000Y-101249752D02*
X62076000Y-100727248D01*
X60606000Y-101249752D02*
X60606000Y-100727248D01*
%TD*%
M02*
