%TF.GenerationSoftware,KiCad,Pcbnew,(6.0.9)*%
%TF.CreationDate,2022-11-11T17:54:53+11:00*%
%TF.ProjectId,Tomie2-Macro-Pad,546f6d69-6532-42d4-9d61-63726f2d5061,rev?*%
%TF.SameCoordinates,Original*%
%TF.FileFunction,Legend,Top*%
%TF.FilePolarity,Positive*%
%FSLAX46Y46*%
G04 Gerber Fmt 4.6, Leading zero omitted, Abs format (unit mm)*
G04 Created by KiCad (PCBNEW (6.0.9)) date 2022-11-11 17:54:53*
%MOMM*%
%LPD*%
G01*
G04 APERTURE LIST*
G04 APERTURE END LIST*
%TO.C,G\u002A\u002A\u002A*%
G36*
X47548016Y-122382842D02*
G01*
X47547974Y-122347492D01*
X47547964Y-122315089D01*
X47547988Y-122285473D01*
X47548047Y-122258485D01*
X47548145Y-122233962D01*
X47548283Y-122211744D01*
X47548464Y-122191672D01*
X47548690Y-122173583D01*
X47548964Y-122157317D01*
X47549287Y-122142714D01*
X47549662Y-122129613D01*
X47550091Y-122117853D01*
X47550577Y-122107273D01*
X47551122Y-122097714D01*
X47551727Y-122089014D01*
X47552396Y-122081012D01*
X47553131Y-122073548D01*
X47553785Y-122067710D01*
X47560423Y-122023400D01*
X47569624Y-121981279D01*
X47581374Y-121941370D01*
X47595660Y-121903697D01*
X47612469Y-121868282D01*
X47631787Y-121835151D01*
X47653601Y-121804327D01*
X47677897Y-121775833D01*
X47704663Y-121749694D01*
X47733884Y-121725933D01*
X47753212Y-121712417D01*
X47785882Y-121692802D01*
X47820504Y-121675771D01*
X47857137Y-121661310D01*
X47895838Y-121649403D01*
X47936666Y-121640035D01*
X47979680Y-121633191D01*
X48024937Y-121628857D01*
X48072496Y-121627016D01*
X48084442Y-121626944D01*
X48132513Y-121628170D01*
X48178252Y-121631849D01*
X48221745Y-121638004D01*
X48263075Y-121646654D01*
X48302330Y-121657820D01*
X48339594Y-121671522D01*
X48374953Y-121687782D01*
X48404830Y-121704385D01*
X48435525Y-121724905D01*
X48464037Y-121748034D01*
X48490316Y-121773693D01*
X48514312Y-121801806D01*
X48535976Y-121832295D01*
X48555259Y-121865084D01*
X48572111Y-121900095D01*
X48586483Y-121937250D01*
X48598324Y-121976473D01*
X48607587Y-122017687D01*
X48608432Y-122022261D01*
X48609633Y-122028835D01*
X48610736Y-122034827D01*
X48611743Y-122040402D01*
X48612661Y-122045721D01*
X48613494Y-122050948D01*
X48614246Y-122056246D01*
X48614921Y-122061777D01*
X48615524Y-122067706D01*
X48616060Y-122074195D01*
X48616533Y-122081406D01*
X48616948Y-122089504D01*
X48617309Y-122098650D01*
X48617621Y-122109009D01*
X48617888Y-122120743D01*
X48618115Y-122134015D01*
X48618305Y-122148988D01*
X48618465Y-122165825D01*
X48618598Y-122184689D01*
X48618708Y-122205743D01*
X48618801Y-122229151D01*
X48618881Y-122255075D01*
X48618952Y-122283678D01*
X48619018Y-122315124D01*
X48619085Y-122349575D01*
X48619157Y-122387194D01*
X48619205Y-122411579D01*
X48619284Y-122452164D01*
X48619351Y-122489480D01*
X48619404Y-122523688D01*
X48619440Y-122554948D01*
X48619456Y-122583422D01*
X48619450Y-122609270D01*
X48619418Y-122632653D01*
X48619358Y-122653732D01*
X48619268Y-122672668D01*
X48619145Y-122689623D01*
X48618985Y-122704755D01*
X48618787Y-122718228D01*
X48618548Y-122730201D01*
X48618265Y-122740835D01*
X48617935Y-122750292D01*
X48617555Y-122758731D01*
X48617124Y-122766315D01*
X48616638Y-122773204D01*
X48616094Y-122779558D01*
X48615491Y-122785539D01*
X48614824Y-122791308D01*
X48614093Y-122797025D01*
X48613293Y-122802852D01*
X48612594Y-122807757D01*
X48607157Y-122840698D01*
X48600614Y-122871102D01*
X48592731Y-122899747D01*
X48583274Y-122927414D01*
X48572009Y-122954881D01*
X48562227Y-122975833D01*
X48546654Y-123005249D01*
X48529956Y-123031972D01*
X48511664Y-123056676D01*
X48491306Y-123080034D01*
X48484505Y-123087103D01*
X48457244Y-123112582D01*
X48428104Y-123135448D01*
X48396984Y-123155751D01*
X48363784Y-123173542D01*
X48328402Y-123188870D01*
X48290737Y-123201785D01*
X48250687Y-123212337D01*
X48215730Y-123219306D01*
X48191566Y-123222882D01*
X48164945Y-123225757D01*
X48136775Y-123227881D01*
X48107968Y-123229206D01*
X48079433Y-123229682D01*
X48052079Y-123229259D01*
X48040794Y-123228783D01*
X48015882Y-123227012D01*
X47989670Y-123224255D01*
X47963575Y-123220689D01*
X47939015Y-123216494D01*
X47931668Y-123215039D01*
X47890204Y-123204959D01*
X47850926Y-123192243D01*
X47813871Y-123176932D01*
X47779075Y-123159063D01*
X47746576Y-123138677D01*
X47716412Y-123115811D01*
X47688618Y-123090506D01*
X47663233Y-123062800D01*
X47640293Y-123032733D01*
X47619836Y-123000343D01*
X47601899Y-122965669D01*
X47586519Y-122928751D01*
X47573733Y-122889627D01*
X47563579Y-122848337D01*
X47558898Y-122823341D01*
X47557654Y-122815886D01*
X47556518Y-122808988D01*
X47555486Y-122802468D01*
X47554550Y-122796149D01*
X47553706Y-122789851D01*
X47552950Y-122783398D01*
X47552274Y-122776610D01*
X47551675Y-122769309D01*
X47551147Y-122761317D01*
X47550684Y-122752455D01*
X47550281Y-122742546D01*
X47549934Y-122731410D01*
X47549636Y-122718871D01*
X47549382Y-122704748D01*
X47549168Y-122688865D01*
X47548987Y-122671043D01*
X47548834Y-122651102D01*
X47548705Y-122628867D01*
X47548594Y-122604156D01*
X47548495Y-122576794D01*
X47548403Y-122546601D01*
X47548314Y-122513399D01*
X47548220Y-122477009D01*
X47548185Y-122463030D01*
X47548104Y-122428729D01*
X47915595Y-122428729D01*
X47915597Y-122467923D01*
X47915601Y-122503840D01*
X47915611Y-122536632D01*
X47915627Y-122566452D01*
X47915651Y-122593454D01*
X47915685Y-122617790D01*
X47915728Y-122639613D01*
X47915784Y-122659075D01*
X47915853Y-122676330D01*
X47915937Y-122691530D01*
X47916037Y-122704828D01*
X47916154Y-122716378D01*
X47916291Y-122726331D01*
X47916447Y-122734841D01*
X47916626Y-122742060D01*
X47916828Y-122748142D01*
X47917054Y-122753239D01*
X47917306Y-122757503D01*
X47917586Y-122761089D01*
X47917894Y-122764148D01*
X47918233Y-122766834D01*
X47918603Y-122769299D01*
X47918721Y-122770026D01*
X47921431Y-122783498D01*
X47925110Y-122797662D01*
X47929438Y-122811493D01*
X47934093Y-122823970D01*
X47938756Y-122834067D01*
X47938815Y-122834179D01*
X47950635Y-122852787D01*
X47964859Y-122868979D01*
X47981344Y-122882638D01*
X47999948Y-122893646D01*
X48020528Y-122901885D01*
X48021071Y-122902056D01*
X48044636Y-122907795D01*
X48069680Y-122910854D01*
X48095468Y-122911173D01*
X48114542Y-122909617D01*
X48138855Y-122905199D01*
X48160933Y-122898187D01*
X48180760Y-122888592D01*
X48198322Y-122876426D01*
X48213604Y-122861701D01*
X48226593Y-122844431D01*
X48237273Y-122824626D01*
X48245629Y-122802299D01*
X48246448Y-122799544D01*
X48247583Y-122795656D01*
X48248625Y-122792053D01*
X48249578Y-122788582D01*
X48250445Y-122785088D01*
X48251231Y-122781417D01*
X48251940Y-122777415D01*
X48252575Y-122772928D01*
X48253141Y-122767800D01*
X48253642Y-122761880D01*
X48254082Y-122755011D01*
X48254464Y-122747040D01*
X48254793Y-122737813D01*
X48255073Y-122727175D01*
X48255307Y-122714972D01*
X48255500Y-122701051D01*
X48255656Y-122685256D01*
X48255778Y-122667434D01*
X48255871Y-122647431D01*
X48255938Y-122625092D01*
X48255984Y-122600263D01*
X48256013Y-122572790D01*
X48256029Y-122542519D01*
X48256034Y-122509295D01*
X48256035Y-122472964D01*
X48256034Y-122433373D01*
X48256034Y-122429322D01*
X48256024Y-122384842D01*
X48255995Y-122343404D01*
X48255946Y-122305038D01*
X48255878Y-122269775D01*
X48255790Y-122237646D01*
X48255684Y-122208680D01*
X48255559Y-122182910D01*
X48255415Y-122160366D01*
X48255253Y-122141078D01*
X48255073Y-122125078D01*
X48254874Y-122112397D01*
X48254658Y-122103064D01*
X48254423Y-122097111D01*
X48254266Y-122095106D01*
X48249743Y-122068924D01*
X48242855Y-122045217D01*
X48233613Y-122023998D01*
X48222030Y-122005277D01*
X48208119Y-121989069D01*
X48191892Y-121975384D01*
X48173362Y-121964237D01*
X48152542Y-121955639D01*
X48129443Y-121949602D01*
X48104079Y-121946139D01*
X48103757Y-121946113D01*
X48078007Y-121945325D01*
X48053538Y-121947156D01*
X48030573Y-121951531D01*
X48009331Y-121958370D01*
X47990034Y-121967598D01*
X47972902Y-121979138D01*
X47958155Y-121992912D01*
X47953214Y-121998727D01*
X47946359Y-122008638D01*
X47939494Y-122020859D01*
X47933134Y-122034311D01*
X47927792Y-122047913D01*
X47924243Y-122059536D01*
X47923216Y-122063560D01*
X47922274Y-122067295D01*
X47921412Y-122070896D01*
X47920628Y-122074519D01*
X47919918Y-122078318D01*
X47919278Y-122082449D01*
X47918704Y-122087068D01*
X47918193Y-122092329D01*
X47917742Y-122098388D01*
X47917346Y-122105399D01*
X47917001Y-122113519D01*
X47916705Y-122122902D01*
X47916454Y-122133704D01*
X47916243Y-122146080D01*
X47916070Y-122160185D01*
X47915931Y-122176174D01*
X47915822Y-122194203D01*
X47915739Y-122214426D01*
X47915679Y-122237000D01*
X47915639Y-122262078D01*
X47915613Y-122289818D01*
X47915600Y-122320373D01*
X47915595Y-122353899D01*
X47915595Y-122428729D01*
X47548104Y-122428729D01*
X47548087Y-122421302D01*
X47548016Y-122382842D01*
G37*
G36*
X51505409Y-122214984D02*
G01*
X51505506Y-122194636D01*
X51505629Y-122176402D01*
X51505783Y-122160119D01*
X51505971Y-122145621D01*
X51506195Y-122132745D01*
X51506460Y-122121326D01*
X51506768Y-122111199D01*
X51507124Y-122102200D01*
X51507530Y-122094166D01*
X51507989Y-122086930D01*
X51508506Y-122080329D01*
X51509083Y-122074198D01*
X51509723Y-122068374D01*
X51510431Y-122062691D01*
X51511208Y-122056985D01*
X51512060Y-122051091D01*
X51512988Y-122044846D01*
X51513032Y-122044556D01*
X51520924Y-122001070D01*
X51531245Y-121959994D01*
X51544008Y-121921301D01*
X51559229Y-121884964D01*
X51576924Y-121850955D01*
X51597106Y-121819248D01*
X51619791Y-121789815D01*
X51644993Y-121762629D01*
X51672729Y-121737662D01*
X51687621Y-121725949D01*
X51717006Y-121705752D01*
X51748417Y-121687845D01*
X51781969Y-121672190D01*
X51817774Y-121658744D01*
X51855949Y-121647467D01*
X51896607Y-121638319D01*
X51939863Y-121631259D01*
X51961416Y-121628619D01*
X51970957Y-121627799D01*
X51983277Y-121627094D01*
X51997725Y-121626512D01*
X52013649Y-121626063D01*
X52030401Y-121625753D01*
X52047328Y-121625592D01*
X52063782Y-121625587D01*
X52079111Y-121625747D01*
X52092665Y-121626080D01*
X52103793Y-121626595D01*
X52106338Y-121626769D01*
X52152687Y-121631499D01*
X52196564Y-121638577D01*
X52238008Y-121648015D01*
X52277062Y-121659829D01*
X52313767Y-121674032D01*
X52348164Y-121690638D01*
X52380294Y-121709661D01*
X52408077Y-121729457D01*
X52417793Y-121737452D01*
X52428902Y-121747326D01*
X52440610Y-121758316D01*
X52452125Y-121769655D01*
X52462656Y-121780580D01*
X52471410Y-121790325D01*
X52472651Y-121791793D01*
X52493700Y-121819497D01*
X52512806Y-121849839D01*
X52529864Y-121882562D01*
X52544768Y-121917407D01*
X52557412Y-121954117D01*
X52567690Y-121992431D01*
X52575495Y-122032093D01*
X52577861Y-122047987D01*
X52578889Y-122055711D01*
X52579811Y-122063047D01*
X52580632Y-122070218D01*
X52581359Y-122077446D01*
X52581996Y-122084954D01*
X52582550Y-122092965D01*
X52583026Y-122101701D01*
X52583431Y-122111386D01*
X52583770Y-122122241D01*
X52584049Y-122134489D01*
X52584274Y-122148353D01*
X52584450Y-122164056D01*
X52584584Y-122181821D01*
X52584682Y-122201870D01*
X52584748Y-122224425D01*
X52584790Y-122249709D01*
X52584812Y-122277946D01*
X52584821Y-122309358D01*
X52584821Y-122314249D01*
X52584839Y-122513625D01*
X51871375Y-122513625D01*
X51871375Y-122628014D01*
X51871392Y-122653706D01*
X51871452Y-122676250D01*
X51871570Y-122695929D01*
X51871759Y-122713025D01*
X51872034Y-122727820D01*
X51872409Y-122740596D01*
X51872898Y-122751636D01*
X51873515Y-122761222D01*
X51874274Y-122769636D01*
X51875190Y-122777161D01*
X51876276Y-122784079D01*
X51877548Y-122790672D01*
X51879018Y-122797222D01*
X51880077Y-122801549D01*
X51887157Y-122824117D01*
X51896458Y-122844104D01*
X51908047Y-122861596D01*
X51921993Y-122876684D01*
X51938363Y-122889454D01*
X51954678Y-122898771D01*
X51973869Y-122906581D01*
X51995247Y-122912432D01*
X52018178Y-122916320D01*
X52042029Y-122918242D01*
X52066169Y-122918194D01*
X52089965Y-122916172D01*
X52112784Y-122912173D01*
X52133994Y-122906193D01*
X52149567Y-122899891D01*
X52168188Y-122889271D01*
X52184527Y-122876117D01*
X52198490Y-122860535D01*
X52209986Y-122842632D01*
X52218922Y-122822513D01*
X52220171Y-122818905D01*
X52224112Y-122806085D01*
X52227186Y-122793615D01*
X52229506Y-122780741D01*
X52231184Y-122766708D01*
X52232332Y-122750761D01*
X52233059Y-122732294D01*
X52234110Y-122694563D01*
X52409722Y-122694126D01*
X52585333Y-122693689D01*
X52584294Y-122736145D01*
X52582155Y-122778095D01*
X52577801Y-122817719D01*
X52571149Y-122855382D01*
X52562117Y-122891443D01*
X52550623Y-122926266D01*
X52536582Y-122960213D01*
X52529994Y-122974118D01*
X52511417Y-123008286D01*
X52490475Y-123039981D01*
X52467133Y-123069237D01*
X52441357Y-123096088D01*
X52413113Y-123120567D01*
X52382368Y-123142710D01*
X52349087Y-123162548D01*
X52331868Y-123171426D01*
X52298924Y-123186328D01*
X52265327Y-123198935D01*
X52230747Y-123209313D01*
X52194855Y-123217529D01*
X52157319Y-123223649D01*
X52117811Y-123227742D01*
X52076000Y-123229872D01*
X52041166Y-123230212D01*
X52028795Y-123230109D01*
X52017155Y-123229976D01*
X52006815Y-123229821D01*
X51998342Y-123229653D01*
X51992305Y-123229483D01*
X51989714Y-123229360D01*
X51943980Y-123224854D01*
X51900766Y-123218128D01*
X51859941Y-123209137D01*
X51821373Y-123197836D01*
X51784929Y-123184179D01*
X51750477Y-123168120D01*
X51717885Y-123149615D01*
X51687021Y-123128618D01*
X51679289Y-123122764D01*
X51668369Y-123113704D01*
X51656206Y-123102570D01*
X51643522Y-123090100D01*
X51631036Y-123077034D01*
X51619470Y-123064110D01*
X51609544Y-123052065D01*
X51606986Y-123048723D01*
X51587134Y-123020130D01*
X51569607Y-122990357D01*
X51554314Y-122959145D01*
X51541161Y-122926233D01*
X51530053Y-122891359D01*
X51520898Y-122854265D01*
X51513601Y-122814689D01*
X51508229Y-122773852D01*
X51507857Y-122770223D01*
X51507516Y-122766399D01*
X51507206Y-122762221D01*
X51506924Y-122757530D01*
X51506670Y-122752169D01*
X51506442Y-122745977D01*
X51506239Y-122738796D01*
X51506060Y-122730467D01*
X51505902Y-122720833D01*
X51505764Y-122709733D01*
X51505646Y-122697009D01*
X51505546Y-122682503D01*
X51505462Y-122666055D01*
X51505393Y-122647507D01*
X51505337Y-122626701D01*
X51505294Y-122603476D01*
X51505261Y-122577675D01*
X51505238Y-122549139D01*
X51505223Y-122517709D01*
X51505214Y-122483227D01*
X51505211Y-122445533D01*
X51505210Y-122430444D01*
X51505211Y-122390689D01*
X51505215Y-122354200D01*
X51505227Y-122320812D01*
X51505249Y-122290361D01*
X51505284Y-122262682D01*
X51505330Y-122240931D01*
X51871375Y-122240931D01*
X52228107Y-122240931D01*
X52228106Y-122175330D01*
X52228057Y-122159731D01*
X52227920Y-122144422D01*
X52227706Y-122129930D01*
X52227425Y-122116782D01*
X52227090Y-122105507D01*
X52226710Y-122096632D01*
X52226318Y-122090891D01*
X52222570Y-122064154D01*
X52216623Y-122040042D01*
X52208436Y-122018513D01*
X52197970Y-121999527D01*
X52185183Y-121983043D01*
X52170035Y-121969021D01*
X52152487Y-121957419D01*
X52132498Y-121948197D01*
X52110028Y-121941315D01*
X52085037Y-121936731D01*
X52072860Y-121935398D01*
X52059553Y-121934454D01*
X52047769Y-121934219D01*
X52035673Y-121934695D01*
X52026622Y-121935398D01*
X52000474Y-121938953D01*
X51976866Y-121944788D01*
X51955757Y-121952944D01*
X51937106Y-121963461D01*
X51920875Y-121976380D01*
X51907022Y-121991743D01*
X51895508Y-122009589D01*
X51886292Y-122029959D01*
X51879334Y-122052894D01*
X51874594Y-122078436D01*
X51873164Y-122090891D01*
X51872753Y-122096988D01*
X51872376Y-122105988D01*
X51872042Y-122117363D01*
X51871764Y-122130586D01*
X51871554Y-122145128D01*
X51871421Y-122160463D01*
X51871377Y-122175330D01*
X51871375Y-122240931D01*
X51505330Y-122240931D01*
X51505337Y-122237611D01*
X51505409Y-122214984D01*
G37*
G36*
X56829839Y-122757843D02*
G01*
X56832565Y-122734658D01*
X56836221Y-122712443D01*
X56840912Y-122690396D01*
X56844210Y-122677139D01*
X56854667Y-122642858D01*
X56867756Y-122610180D01*
X56883531Y-122579048D01*
X56902052Y-122549408D01*
X56923374Y-122521204D01*
X56947555Y-122494381D01*
X56974651Y-122468883D01*
X57004721Y-122444656D01*
X57037820Y-122421643D01*
X57074006Y-122399790D01*
X57113336Y-122379041D01*
X57155867Y-122359341D01*
X57183765Y-122347671D01*
X57192204Y-122344353D01*
X57203180Y-122340159D01*
X57215993Y-122335350D01*
X57229943Y-122330186D01*
X57244331Y-122324927D01*
X57258458Y-122319835D01*
X57260085Y-122319254D01*
X57292098Y-122307707D01*
X57321031Y-122297010D01*
X57347105Y-122287066D01*
X57370538Y-122277782D01*
X57391549Y-122269063D01*
X57410358Y-122260813D01*
X57427183Y-122252939D01*
X57442244Y-122245346D01*
X57455759Y-122237939D01*
X57467948Y-122230624D01*
X57473579Y-122226993D01*
X57490594Y-122214619D01*
X57504429Y-122201973D01*
X57515334Y-122188742D01*
X57523561Y-122174611D01*
X57529360Y-122159268D01*
X57530248Y-122156035D01*
X57532199Y-122145609D01*
X57533474Y-122132514D01*
X57534091Y-122117443D01*
X57534069Y-122101086D01*
X57533427Y-122084135D01*
X57532184Y-122067280D01*
X57530357Y-122051213D01*
X57527966Y-122036625D01*
X57526896Y-122031538D01*
X57520778Y-122009966D01*
X57512732Y-121991088D01*
X57502667Y-121974839D01*
X57490497Y-121961155D01*
X57476131Y-121949971D01*
X57459481Y-121941221D01*
X57440458Y-121934841D01*
X57418972Y-121930765D01*
X57394935Y-121928929D01*
X57386142Y-121928804D01*
X57360136Y-121930020D01*
X57336518Y-121933687D01*
X57315247Y-121939833D01*
X57296284Y-121948485D01*
X57279587Y-121959670D01*
X57265118Y-121973417D01*
X57252835Y-121989753D01*
X57242700Y-122008705D01*
X57234670Y-122030302D01*
X57233656Y-122033733D01*
X57230148Y-122047866D01*
X57227383Y-122063390D01*
X57225290Y-122080850D01*
X57223799Y-122100792D01*
X57223100Y-122115882D01*
X57221920Y-122147760D01*
X57123092Y-122148895D01*
X57101983Y-122149121D01*
X57079490Y-122149332D01*
X57056291Y-122149523D01*
X57033070Y-122149691D01*
X57010504Y-122149830D01*
X56989275Y-122149936D01*
X56970064Y-122150004D01*
X56953549Y-122150031D01*
X56952416Y-122150031D01*
X56880568Y-122150032D01*
X56881548Y-122106727D01*
X56882599Y-122077589D01*
X56884441Y-122050948D01*
X56887187Y-122025940D01*
X56890950Y-122001698D01*
X56895843Y-121977358D01*
X56901672Y-121953242D01*
X56912773Y-121916468D01*
X56926547Y-121881339D01*
X56942877Y-121848040D01*
X56961648Y-121816761D01*
X56982742Y-121787686D01*
X57006045Y-121761005D01*
X57031439Y-121736905D01*
X57040590Y-121729282D01*
X57069929Y-121707757D01*
X57101365Y-121688744D01*
X57134952Y-121672222D01*
X57170745Y-121658174D01*
X57208798Y-121646580D01*
X57249166Y-121637419D01*
X57291903Y-121630674D01*
X57330403Y-121626805D01*
X57340570Y-121626239D01*
X57353361Y-121625849D01*
X57368141Y-121625628D01*
X57384277Y-121625568D01*
X57401134Y-121625661D01*
X57418079Y-121625901D01*
X57434477Y-121626278D01*
X57449693Y-121626785D01*
X57463095Y-121627415D01*
X57474048Y-121628160D01*
X57478755Y-121628611D01*
X57514798Y-121633259D01*
X57547966Y-121638953D01*
X57578684Y-121645804D01*
X57607377Y-121653923D01*
X57634471Y-121663424D01*
X57660392Y-121674417D01*
X57669533Y-121678770D01*
X57700331Y-121695593D01*
X57728801Y-121714761D01*
X57754967Y-121736311D01*
X57778853Y-121760280D01*
X57800482Y-121786705D01*
X57819880Y-121815622D01*
X57837069Y-121847069D01*
X57852074Y-121881082D01*
X57864917Y-121917698D01*
X57875625Y-121956955D01*
X57884219Y-121998888D01*
X57886784Y-122014543D01*
X57887872Y-122021590D01*
X57888878Y-122028128D01*
X57889807Y-122034305D01*
X57890661Y-122040269D01*
X57891445Y-122046168D01*
X57892162Y-122052150D01*
X57892815Y-122058364D01*
X57893409Y-122064957D01*
X57893946Y-122072077D01*
X57894430Y-122079873D01*
X57894865Y-122088492D01*
X57895254Y-122098083D01*
X57895601Y-122108794D01*
X57895909Y-122120772D01*
X57896182Y-122134166D01*
X57896424Y-122149124D01*
X57896637Y-122165794D01*
X57896826Y-122184323D01*
X57896995Y-122204861D01*
X57897146Y-122227555D01*
X57897283Y-122252553D01*
X57897410Y-122280003D01*
X57897530Y-122310053D01*
X57897648Y-122342852D01*
X57897765Y-122378547D01*
X57897887Y-122417286D01*
X57898016Y-122459218D01*
X57898099Y-122486184D01*
X57898237Y-122530156D01*
X57898369Y-122570856D01*
X57898498Y-122608444D01*
X57898626Y-122643078D01*
X57898755Y-122674916D01*
X57898889Y-122704118D01*
X57899030Y-122730842D01*
X57899180Y-122755247D01*
X57899342Y-122777491D01*
X57899518Y-122797734D01*
X57899712Y-122816133D01*
X57899925Y-122832849D01*
X57900160Y-122848038D01*
X57900419Y-122861861D01*
X57900706Y-122874475D01*
X57901023Y-122886040D01*
X57901371Y-122896713D01*
X57901755Y-122906655D01*
X57902175Y-122916024D01*
X57902636Y-122924977D01*
X57903139Y-122933675D01*
X57903687Y-122942275D01*
X57904282Y-122950936D01*
X57904928Y-122959818D01*
X57905626Y-122969078D01*
X57905880Y-122972402D01*
X57909431Y-123013429D01*
X57913611Y-123052309D01*
X57918385Y-123088801D01*
X57923718Y-123122665D01*
X57929574Y-123153662D01*
X57935918Y-123181550D01*
X57937368Y-123187213D01*
X57940621Y-123199648D01*
X57603185Y-123199648D01*
X57600707Y-123194855D01*
X57597600Y-123187155D01*
X57594521Y-123176222D01*
X57591499Y-123162253D01*
X57588562Y-123145447D01*
X57585736Y-123126001D01*
X57583051Y-123104112D01*
X57580534Y-123079977D01*
X57578212Y-123053794D01*
X57576114Y-123025761D01*
X57575446Y-123015685D01*
X57573382Y-122983505D01*
X57567063Y-122998535D01*
X57551037Y-123032811D01*
X57532923Y-123064370D01*
X57512710Y-123093224D01*
X57490386Y-123119387D01*
X57465939Y-123142871D01*
X57439357Y-123163689D01*
X57410628Y-123181856D01*
X57391287Y-123192010D01*
X57361681Y-123204846D01*
X57331019Y-123214997D01*
X57298998Y-123222525D01*
X57265317Y-123227492D01*
X57229675Y-123229960D01*
X57206061Y-123230260D01*
X57195215Y-123230151D01*
X57185245Y-123230000D01*
X57176775Y-123229820D01*
X57170425Y-123229624D01*
X57166816Y-123229426D01*
X57166615Y-123229405D01*
X57162641Y-123228946D01*
X57156341Y-123228225D01*
X57148799Y-123227364D01*
X57145177Y-123226952D01*
X57111424Y-123221526D01*
X57078262Y-123213072D01*
X57046115Y-123201755D01*
X57015412Y-123187740D01*
X56986578Y-123171190D01*
X56968570Y-123158805D01*
X56958854Y-123151054D01*
X56947897Y-123141373D01*
X56936523Y-123130568D01*
X56925560Y-123119446D01*
X56915834Y-123108812D01*
X56909367Y-123101032D01*
X56889346Y-123072722D01*
X56872110Y-123042601D01*
X56857647Y-123010626D01*
X56845947Y-122976755D01*
X56836996Y-122940946D01*
X56830783Y-122903158D01*
X56827295Y-122863347D01*
X56826521Y-122821472D01*
X56826761Y-122810330D01*
X56827935Y-122782907D01*
X57190492Y-122782907D01*
X57192601Y-122805513D01*
X57196856Y-122827177D01*
X57203205Y-122847184D01*
X57207703Y-122857494D01*
X57217505Y-122874190D01*
X57229447Y-122888346D01*
X57243664Y-122900067D01*
X57260292Y-122909458D01*
X57279465Y-122916626D01*
X57285895Y-122918400D01*
X57307488Y-122922474D01*
X57330614Y-122924214D01*
X57354270Y-122923594D01*
X57375974Y-122920855D01*
X57399723Y-122914982D01*
X57421709Y-122906192D01*
X57441882Y-122894544D01*
X57460186Y-122880096D01*
X57476571Y-122862904D01*
X57490982Y-122843028D01*
X57503368Y-122820524D01*
X57513676Y-122795451D01*
X57521852Y-122767866D01*
X57523957Y-122758760D01*
X57525685Y-122750663D01*
X57527186Y-122743226D01*
X57528477Y-122736142D01*
X57529577Y-122729102D01*
X57530503Y-122721800D01*
X57531273Y-122713927D01*
X57531906Y-122705177D01*
X57532418Y-122695243D01*
X57532828Y-122683815D01*
X57533153Y-122670588D01*
X57533413Y-122655254D01*
X57533624Y-122637505D01*
X57533804Y-122617033D01*
X57533971Y-122593532D01*
X57534022Y-122585781D01*
X57534169Y-122562885D01*
X57534288Y-122543186D01*
X57534373Y-122526447D01*
X57534419Y-122512436D01*
X57534421Y-122500917D01*
X57534373Y-122491657D01*
X57534270Y-122484421D01*
X57534107Y-122478974D01*
X57533878Y-122475083D01*
X57533579Y-122472513D01*
X57533202Y-122471030D01*
X57532744Y-122470399D01*
X57532199Y-122470386D01*
X57531562Y-122470757D01*
X57531401Y-122470872D01*
X57510581Y-122485210D01*
X57488140Y-122499210D01*
X57463750Y-122513045D01*
X57437084Y-122526889D01*
X57407815Y-122540919D01*
X57375616Y-122555307D01*
X57362984Y-122560719D01*
X57336602Y-122572594D01*
X57313221Y-122584642D01*
X57292412Y-122597136D01*
X57273746Y-122610350D01*
X57256797Y-122624559D01*
X57244511Y-122636487D01*
X57228522Y-122654839D01*
X57215619Y-122673832D01*
X57205459Y-122694053D01*
X57197698Y-122716086D01*
X57197551Y-122716596D01*
X57192915Y-122737734D01*
X57190579Y-122760076D01*
X57190492Y-122782907D01*
X56827935Y-122782907D01*
X56827940Y-122782800D01*
X56829839Y-122757843D01*
G37*
G36*
X58700802Y-121625394D02*
G01*
X58726056Y-121626501D01*
X58733406Y-121627020D01*
X58778478Y-121631909D01*
X58821303Y-121639389D01*
X58861883Y-121649461D01*
X58900219Y-121662125D01*
X58936313Y-121677382D01*
X58970167Y-121695233D01*
X59001782Y-121715678D01*
X59031160Y-121738719D01*
X59058303Y-121764355D01*
X59058323Y-121764375D01*
X59082908Y-121792189D01*
X59104976Y-121822150D01*
X59124545Y-121854298D01*
X59141629Y-121888673D01*
X59156247Y-121925316D01*
X59168413Y-121964267D01*
X59178145Y-122005566D01*
X59185459Y-122049253D01*
X59189712Y-122087433D01*
X59190237Y-122095176D01*
X59190723Y-122105707D01*
X59191153Y-122118384D01*
X59191508Y-122132566D01*
X59191773Y-122147609D01*
X59191928Y-122162873D01*
X59191958Y-122169756D01*
X59192098Y-122228068D01*
X59016733Y-122228504D01*
X58841368Y-122228941D01*
X58841367Y-122173623D01*
X58841232Y-122149123D01*
X58840789Y-122127665D01*
X58839981Y-122108869D01*
X58838748Y-122092355D01*
X58837032Y-122077745D01*
X58834775Y-122064658D01*
X58831920Y-122052714D01*
X58828406Y-122041535D01*
X58824177Y-122030741D01*
X58819173Y-122019953D01*
X58817129Y-122015914D01*
X58807904Y-122001272D01*
X58796025Y-121987432D01*
X58782267Y-121975152D01*
X58767407Y-121965188D01*
X58762476Y-121962579D01*
X58741651Y-121954093D01*
X58718723Y-121948100D01*
X58693999Y-121944648D01*
X58667785Y-121943788D01*
X58652084Y-121944492D01*
X58627357Y-121947628D01*
X58604944Y-121953295D01*
X58584838Y-121961498D01*
X58567035Y-121972240D01*
X58551529Y-121985526D01*
X58538313Y-122001360D01*
X58527383Y-122019746D01*
X58518733Y-122040688D01*
X58518300Y-122041984D01*
X58516860Y-122046269D01*
X58515538Y-122050123D01*
X58514328Y-122053701D01*
X58513227Y-122057158D01*
X58512228Y-122060649D01*
X58511327Y-122064327D01*
X58510517Y-122068348D01*
X58509794Y-122072867D01*
X58509153Y-122078037D01*
X58508587Y-122084013D01*
X58508093Y-122090951D01*
X58507664Y-122099004D01*
X58507295Y-122108328D01*
X58506982Y-122119077D01*
X58506718Y-122131405D01*
X58506498Y-122145467D01*
X58506318Y-122161419D01*
X58506171Y-122179413D01*
X58506053Y-122199606D01*
X58505959Y-122222152D01*
X58505882Y-122247205D01*
X58505818Y-122274920D01*
X58505762Y-122305451D01*
X58505707Y-122338954D01*
X58505650Y-122375582D01*
X58505586Y-122414151D01*
X58505519Y-122454601D01*
X58505463Y-122491773D01*
X58505422Y-122525822D01*
X58505396Y-122556899D01*
X58505390Y-122585160D01*
X58505404Y-122610755D01*
X58505442Y-122633839D01*
X58505505Y-122654565D01*
X58505597Y-122673085D01*
X58505719Y-122689553D01*
X58505873Y-122704122D01*
X58506064Y-122716945D01*
X58506291Y-122728176D01*
X58506558Y-122737966D01*
X58506868Y-122746470D01*
X58507222Y-122753840D01*
X58507623Y-122760230D01*
X58508074Y-122765793D01*
X58508576Y-122770681D01*
X58509132Y-122775048D01*
X58509744Y-122779047D01*
X58510415Y-122782831D01*
X58511147Y-122786554D01*
X58511323Y-122787411D01*
X58517701Y-122811377D01*
X58526412Y-122832839D01*
X58537436Y-122851782D01*
X58550759Y-122868187D01*
X58566360Y-122882039D01*
X58584224Y-122893320D01*
X58604334Y-122902012D01*
X58626670Y-122908100D01*
X58636419Y-122909831D01*
X58646908Y-122910964D01*
X58659639Y-122911627D01*
X58673455Y-122911821D01*
X58687200Y-122911545D01*
X58699718Y-122910801D01*
X58708466Y-122909810D01*
X58731966Y-122904801D01*
X58753218Y-122897215D01*
X58772200Y-122887071D01*
X58788891Y-122874387D01*
X58803267Y-122859179D01*
X58815308Y-122841467D01*
X58824992Y-122821266D01*
X58828351Y-122812045D01*
X58830850Y-122804390D01*
X58832971Y-122797365D01*
X58834748Y-122790606D01*
X58836216Y-122783750D01*
X58837407Y-122776435D01*
X58838357Y-122768296D01*
X58839099Y-122758971D01*
X58839668Y-122748096D01*
X58840096Y-122735308D01*
X58840419Y-122720244D01*
X58840671Y-122702540D01*
X58840885Y-122681834D01*
X58840921Y-122677833D01*
X58841673Y-122594216D01*
X59016885Y-122594653D01*
X59192098Y-122595090D01*
X59192004Y-122669695D01*
X59191927Y-122692445D01*
X59191738Y-122712253D01*
X59191411Y-122729603D01*
X59190916Y-122744983D01*
X59190228Y-122758878D01*
X59189318Y-122771775D01*
X59188158Y-122784160D01*
X59186720Y-122796518D01*
X59184978Y-122809336D01*
X59183492Y-122819300D01*
X59176932Y-122856053D01*
X59168875Y-122890223D01*
X59159136Y-122922396D01*
X59147532Y-122953158D01*
X59133880Y-122983094D01*
X59129467Y-122991792D01*
X59110265Y-123025269D01*
X59088702Y-123056264D01*
X59064793Y-123084769D01*
X59038555Y-123110773D01*
X59010005Y-123134265D01*
X58979160Y-123155237D01*
X58946036Y-123173677D01*
X58910651Y-123189576D01*
X58873020Y-123202924D01*
X58833161Y-123213711D01*
X58791091Y-123221926D01*
X58746826Y-123227561D01*
X58733406Y-123228724D01*
X58725616Y-123229172D01*
X58715163Y-123229545D01*
X58702723Y-123229839D01*
X58688972Y-123230049D01*
X58674585Y-123230173D01*
X58660239Y-123230207D01*
X58646608Y-123230147D01*
X58634370Y-123229989D01*
X58624199Y-123229730D01*
X58616773Y-123229365D01*
X58616696Y-123229360D01*
X58570138Y-123224643D01*
X58525919Y-123217417D01*
X58484036Y-123207680D01*
X58444490Y-123195433D01*
X58407281Y-123180675D01*
X58372408Y-123163406D01*
X58339872Y-123143626D01*
X58309671Y-123121334D01*
X58281805Y-123096532D01*
X58256275Y-123069217D01*
X58233080Y-123039391D01*
X58212219Y-123007053D01*
X58199880Y-122984625D01*
X58187519Y-122958880D01*
X58176708Y-122932441D01*
X58167326Y-122904874D01*
X58159254Y-122875746D01*
X58152373Y-122844622D01*
X58146565Y-122811070D01*
X58141709Y-122774655D01*
X58141374Y-122771741D01*
X58141111Y-122767716D01*
X58140858Y-122760477D01*
X58140614Y-122750237D01*
X58140381Y-122737212D01*
X58140158Y-122721616D01*
X58139946Y-122703664D01*
X58139747Y-122683571D01*
X58139559Y-122661553D01*
X58139384Y-122637823D01*
X58139222Y-122612597D01*
X58139075Y-122586090D01*
X58138941Y-122558516D01*
X58138822Y-122530090D01*
X58138718Y-122501028D01*
X58138631Y-122471543D01*
X58138559Y-122441852D01*
X58138504Y-122412168D01*
X58138467Y-122382708D01*
X58138447Y-122353684D01*
X58138446Y-122325313D01*
X58138463Y-122297810D01*
X58138500Y-122271389D01*
X58138556Y-122246264D01*
X58138633Y-122222652D01*
X58138731Y-122200766D01*
X58138850Y-122180822D01*
X58138991Y-122163035D01*
X58139154Y-122147619D01*
X58139340Y-122134789D01*
X58139549Y-122124761D01*
X58139782Y-122117748D01*
X58139834Y-122116675D01*
X58143275Y-122072096D01*
X58148781Y-122030110D01*
X58156400Y-121990538D01*
X58166179Y-121953200D01*
X58178164Y-121917917D01*
X58192404Y-121884508D01*
X58208917Y-121852844D01*
X58229418Y-121820364D01*
X58252342Y-121790297D01*
X58277654Y-121762667D01*
X58305315Y-121737494D01*
X58335291Y-121714803D01*
X58367544Y-121694615D01*
X58402039Y-121676953D01*
X58438737Y-121661840D01*
X58477603Y-121649299D01*
X58518601Y-121639352D01*
X58561693Y-121632022D01*
X58566102Y-121631435D01*
X58590688Y-121628775D01*
X58617495Y-121626813D01*
X58645478Y-121625577D01*
X58673596Y-121625095D01*
X58700802Y-121625394D01*
G37*
G36*
X60328582Y-122347492D02*
G01*
X60328572Y-122315089D01*
X60328595Y-122285473D01*
X60328655Y-122258485D01*
X60328752Y-122233962D01*
X60328891Y-122211744D01*
X60329072Y-122191672D01*
X60329298Y-122173583D01*
X60329571Y-122157317D01*
X60329895Y-122142714D01*
X60330270Y-122129613D01*
X60330699Y-122117853D01*
X60331185Y-122107273D01*
X60331730Y-122097714D01*
X60332335Y-122089014D01*
X60333004Y-122081012D01*
X60333739Y-122073548D01*
X60334392Y-122067710D01*
X60341031Y-122023400D01*
X60350232Y-121981279D01*
X60361982Y-121941370D01*
X60376268Y-121903697D01*
X60393077Y-121868282D01*
X60412395Y-121835151D01*
X60434208Y-121804327D01*
X60458505Y-121775833D01*
X60485270Y-121749694D01*
X60514492Y-121725933D01*
X60533819Y-121712417D01*
X60566490Y-121692802D01*
X60601112Y-121675771D01*
X60637745Y-121661310D01*
X60676446Y-121649403D01*
X60717274Y-121640035D01*
X60760287Y-121633191D01*
X60805545Y-121628857D01*
X60853104Y-121627016D01*
X60865050Y-121626944D01*
X60913121Y-121628170D01*
X60958860Y-121631849D01*
X61002352Y-121638004D01*
X61043683Y-121646654D01*
X61082938Y-121657820D01*
X61120202Y-121671522D01*
X61155561Y-121687782D01*
X61185438Y-121704385D01*
X61216133Y-121724905D01*
X61244645Y-121748034D01*
X61270923Y-121773693D01*
X61294920Y-121801806D01*
X61316584Y-121832295D01*
X61335867Y-121865084D01*
X61352719Y-121900095D01*
X61367090Y-121937250D01*
X61378932Y-121976473D01*
X61388195Y-122017687D01*
X61389040Y-122022261D01*
X61390241Y-122028835D01*
X61391343Y-122034827D01*
X61392351Y-122040402D01*
X61393269Y-122045721D01*
X61394102Y-122050948D01*
X61394853Y-122056246D01*
X61395528Y-122061777D01*
X61396132Y-122067706D01*
X61396668Y-122074195D01*
X61397141Y-122081406D01*
X61397556Y-122089504D01*
X61397917Y-122098650D01*
X61398229Y-122109009D01*
X61398496Y-122120743D01*
X61398722Y-122134015D01*
X61398913Y-122148988D01*
X61399073Y-122165825D01*
X61399205Y-122184689D01*
X61399316Y-122205743D01*
X61399409Y-122229151D01*
X61399488Y-122255075D01*
X61399559Y-122283678D01*
X61399626Y-122315124D01*
X61399693Y-122349575D01*
X61399765Y-122387194D01*
X61399813Y-122411579D01*
X61399892Y-122452164D01*
X61399959Y-122489480D01*
X61400012Y-122523688D01*
X61400048Y-122554948D01*
X61400064Y-122583422D01*
X61400057Y-122609270D01*
X61400025Y-122632653D01*
X61399966Y-122653732D01*
X61399876Y-122672668D01*
X61399752Y-122689623D01*
X61399593Y-122704755D01*
X61399395Y-122718228D01*
X61399156Y-122730201D01*
X61398872Y-122740835D01*
X61398542Y-122750292D01*
X61398163Y-122758731D01*
X61397732Y-122766315D01*
X61397246Y-122773204D01*
X61396702Y-122779558D01*
X61396099Y-122785539D01*
X61395432Y-122791308D01*
X61394700Y-122797025D01*
X61393900Y-122802852D01*
X61393201Y-122807757D01*
X61387765Y-122840698D01*
X61381222Y-122871102D01*
X61373339Y-122899747D01*
X61363881Y-122927414D01*
X61352616Y-122954881D01*
X61342835Y-122975833D01*
X61327261Y-123005249D01*
X61310564Y-123031972D01*
X61292271Y-123056676D01*
X61271913Y-123080034D01*
X61265113Y-123087103D01*
X61237851Y-123112582D01*
X61208711Y-123135448D01*
X61177592Y-123155751D01*
X61144392Y-123173542D01*
X61109010Y-123188870D01*
X61071344Y-123201785D01*
X61031294Y-123212337D01*
X60996338Y-123219306D01*
X60972174Y-123222882D01*
X60945553Y-123225757D01*
X60917383Y-123227881D01*
X60888576Y-123229206D01*
X60860040Y-123229682D01*
X60832687Y-123229259D01*
X60821402Y-123228783D01*
X60796489Y-123227012D01*
X60770277Y-123224255D01*
X60744183Y-123220689D01*
X60719623Y-123216494D01*
X60712275Y-123215039D01*
X60670812Y-123204959D01*
X60631534Y-123192243D01*
X60594479Y-123176932D01*
X60559683Y-123159063D01*
X60527184Y-123138677D01*
X60497019Y-123115811D01*
X60469226Y-123090506D01*
X60443840Y-123062800D01*
X60420901Y-123032733D01*
X60400444Y-123000343D01*
X60382507Y-122965669D01*
X60367127Y-122928751D01*
X60354341Y-122889627D01*
X60344186Y-122848337D01*
X60339505Y-122823341D01*
X60338262Y-122815886D01*
X60337126Y-122808988D01*
X60336093Y-122802468D01*
X60335158Y-122796149D01*
X60334314Y-122789851D01*
X60333557Y-122783398D01*
X60332882Y-122776610D01*
X60332283Y-122769309D01*
X60331754Y-122761317D01*
X60331292Y-122752455D01*
X60330889Y-122742546D01*
X60330541Y-122731410D01*
X60330243Y-122718871D01*
X60329990Y-122704748D01*
X60329775Y-122688865D01*
X60329594Y-122671043D01*
X60329442Y-122651102D01*
X60329313Y-122628867D01*
X60329201Y-122604156D01*
X60329103Y-122576794D01*
X60329011Y-122546601D01*
X60328921Y-122513399D01*
X60328828Y-122477009D01*
X60328793Y-122463030D01*
X60328695Y-122421302D01*
X60328638Y-122390551D01*
X60696202Y-122390551D01*
X60696203Y-122428729D01*
X60696204Y-122467923D01*
X60696209Y-122503840D01*
X60696219Y-122536632D01*
X60696235Y-122566452D01*
X60696259Y-122593454D01*
X60696292Y-122617790D01*
X60696336Y-122639613D01*
X60696392Y-122659075D01*
X60696461Y-122676330D01*
X60696544Y-122691530D01*
X60696644Y-122704828D01*
X60696762Y-122716378D01*
X60696898Y-122726331D01*
X60697055Y-122734841D01*
X60697234Y-122742060D01*
X60697435Y-122748142D01*
X60697662Y-122753239D01*
X60697914Y-122757503D01*
X60698194Y-122761089D01*
X60698502Y-122764148D01*
X60698840Y-122766834D01*
X60699211Y-122769299D01*
X60699329Y-122770026D01*
X60702039Y-122783498D01*
X60705718Y-122797662D01*
X60710045Y-122811493D01*
X60714701Y-122823970D01*
X60719363Y-122834067D01*
X60719423Y-122834179D01*
X60731243Y-122852787D01*
X60745466Y-122868979D01*
X60761951Y-122882638D01*
X60780555Y-122893646D01*
X60801136Y-122901885D01*
X60801679Y-122902056D01*
X60825244Y-122907795D01*
X60850287Y-122910854D01*
X60876075Y-122911173D01*
X60895150Y-122909617D01*
X60919463Y-122905199D01*
X60941540Y-122898187D01*
X60961367Y-122888592D01*
X60978929Y-122876426D01*
X60994212Y-122861701D01*
X61007200Y-122844431D01*
X61017880Y-122824626D01*
X61026237Y-122802299D01*
X61027056Y-122799544D01*
X61028191Y-122795656D01*
X61029233Y-122792053D01*
X61030185Y-122788582D01*
X61031053Y-122785088D01*
X61031839Y-122781417D01*
X61032547Y-122777415D01*
X61033183Y-122772928D01*
X61033749Y-122767800D01*
X61034250Y-122761880D01*
X61034690Y-122755011D01*
X61035072Y-122747040D01*
X61035401Y-122737813D01*
X61035681Y-122727175D01*
X61035915Y-122714972D01*
X61036108Y-122701051D01*
X61036263Y-122685256D01*
X61036386Y-122667434D01*
X61036479Y-122647431D01*
X61036546Y-122625092D01*
X61036592Y-122600263D01*
X61036621Y-122572790D01*
X61036636Y-122542519D01*
X61036642Y-122509295D01*
X61036643Y-122472964D01*
X61036642Y-122433373D01*
X61036642Y-122429322D01*
X61036632Y-122384842D01*
X61036602Y-122343404D01*
X61036554Y-122305038D01*
X61036485Y-122269775D01*
X61036398Y-122237646D01*
X61036292Y-122208680D01*
X61036167Y-122182910D01*
X61036023Y-122160366D01*
X61035861Y-122141078D01*
X61035680Y-122125078D01*
X61035482Y-122112397D01*
X61035265Y-122103064D01*
X61035031Y-122097111D01*
X61034874Y-122095106D01*
X61030351Y-122068924D01*
X61023463Y-122045217D01*
X61014221Y-122023998D01*
X61002638Y-122005277D01*
X60988727Y-121989069D01*
X60972500Y-121975384D01*
X60953970Y-121964237D01*
X60933149Y-121955639D01*
X60910050Y-121949602D01*
X60884686Y-121946139D01*
X60884365Y-121946113D01*
X60858614Y-121945325D01*
X60834146Y-121947156D01*
X60811181Y-121951531D01*
X60789939Y-121958370D01*
X60770642Y-121967598D01*
X60753509Y-121979138D01*
X60738763Y-121992912D01*
X60733821Y-121998727D01*
X60726967Y-122008638D01*
X60720102Y-122020859D01*
X60713742Y-122034311D01*
X60708399Y-122047913D01*
X60704851Y-122059536D01*
X60703824Y-122063560D01*
X60702881Y-122067295D01*
X60702020Y-122070896D01*
X60701236Y-122074519D01*
X60700526Y-122078318D01*
X60699886Y-122082449D01*
X60699312Y-122087068D01*
X60698801Y-122092329D01*
X60698349Y-122098388D01*
X60697953Y-122105399D01*
X60697609Y-122113519D01*
X60697313Y-122122902D01*
X60697062Y-122133704D01*
X60696851Y-122146080D01*
X60696678Y-122160185D01*
X60696539Y-122176174D01*
X60696430Y-122194203D01*
X60696347Y-122214426D01*
X60696287Y-122237000D01*
X60696246Y-122262078D01*
X60696221Y-122289818D01*
X60696208Y-122320373D01*
X60696203Y-122353899D01*
X60696202Y-122390551D01*
X60328638Y-122390551D01*
X60328624Y-122382842D01*
X60328582Y-122347492D01*
G37*
G36*
X63818698Y-122757843D02*
G01*
X63821424Y-122734658D01*
X63825080Y-122712443D01*
X63829771Y-122690396D01*
X63833069Y-122677139D01*
X63843526Y-122642858D01*
X63856615Y-122610180D01*
X63872390Y-122579048D01*
X63890911Y-122549408D01*
X63912233Y-122521204D01*
X63936414Y-122494381D01*
X63963510Y-122468883D01*
X63993580Y-122444656D01*
X64026679Y-122421643D01*
X64062865Y-122399790D01*
X64102195Y-122379041D01*
X64144726Y-122359341D01*
X64172624Y-122347671D01*
X64181063Y-122344353D01*
X64192039Y-122340159D01*
X64204852Y-122335350D01*
X64218802Y-122330186D01*
X64233190Y-122324927D01*
X64247317Y-122319835D01*
X64248944Y-122319254D01*
X64280957Y-122307707D01*
X64309890Y-122297010D01*
X64335964Y-122287066D01*
X64359397Y-122277782D01*
X64380408Y-122269063D01*
X64399217Y-122260813D01*
X64416042Y-122252939D01*
X64431103Y-122245346D01*
X64444618Y-122237939D01*
X64456807Y-122230624D01*
X64462438Y-122226993D01*
X64479452Y-122214619D01*
X64493288Y-122201973D01*
X64504193Y-122188742D01*
X64512420Y-122174611D01*
X64518219Y-122159268D01*
X64519107Y-122156035D01*
X64521058Y-122145609D01*
X64522332Y-122132514D01*
X64522950Y-122117443D01*
X64522928Y-122101086D01*
X64522286Y-122084135D01*
X64521043Y-122067280D01*
X64519216Y-122051213D01*
X64516825Y-122036625D01*
X64515755Y-122031538D01*
X64509637Y-122009966D01*
X64501590Y-121991088D01*
X64491526Y-121974839D01*
X64479356Y-121961155D01*
X64464990Y-121949971D01*
X64448340Y-121941221D01*
X64429316Y-121934841D01*
X64407831Y-121930765D01*
X64383794Y-121928929D01*
X64375001Y-121928804D01*
X64348995Y-121930020D01*
X64325377Y-121933687D01*
X64304106Y-121939833D01*
X64285143Y-121948485D01*
X64268446Y-121959670D01*
X64253977Y-121973417D01*
X64241694Y-121989753D01*
X64231558Y-122008705D01*
X64223529Y-122030302D01*
X64222515Y-122033733D01*
X64219007Y-122047866D01*
X64216242Y-122063390D01*
X64214149Y-122080850D01*
X64212658Y-122100792D01*
X64211959Y-122115882D01*
X64210779Y-122147760D01*
X64111951Y-122148895D01*
X64090842Y-122149121D01*
X64068348Y-122149332D01*
X64045150Y-122149523D01*
X64021928Y-122149691D01*
X63999363Y-122149830D01*
X63978134Y-122149936D01*
X63958922Y-122150004D01*
X63942408Y-122150031D01*
X63941275Y-122150031D01*
X63869427Y-122150032D01*
X63870407Y-122106727D01*
X63871458Y-122077589D01*
X63873300Y-122050948D01*
X63876046Y-122025940D01*
X63879808Y-122001698D01*
X63884702Y-121977358D01*
X63890531Y-121953242D01*
X63901632Y-121916468D01*
X63915406Y-121881339D01*
X63931736Y-121848040D01*
X63950507Y-121816761D01*
X63971601Y-121787686D01*
X63994904Y-121761005D01*
X64020298Y-121736905D01*
X64029448Y-121729282D01*
X64058788Y-121707757D01*
X64090224Y-121688744D01*
X64123811Y-121672222D01*
X64159604Y-121658174D01*
X64197657Y-121646580D01*
X64238025Y-121637419D01*
X64280762Y-121630674D01*
X64319262Y-121626805D01*
X64329429Y-121626239D01*
X64342219Y-121625849D01*
X64357000Y-121625628D01*
X64373136Y-121625568D01*
X64389993Y-121625661D01*
X64406938Y-121625901D01*
X64423335Y-121626278D01*
X64438552Y-121626785D01*
X64451954Y-121627415D01*
X64462907Y-121628160D01*
X64467614Y-121628611D01*
X64503657Y-121633259D01*
X64536825Y-121638953D01*
X64567542Y-121645804D01*
X64596236Y-121653923D01*
X64623330Y-121663424D01*
X64649251Y-121674417D01*
X64658392Y-121678770D01*
X64689190Y-121695593D01*
X64717660Y-121714761D01*
X64743826Y-121736311D01*
X64767711Y-121760280D01*
X64789341Y-121786705D01*
X64808739Y-121815622D01*
X64825928Y-121847069D01*
X64840932Y-121881082D01*
X64853776Y-121917698D01*
X64864483Y-121956955D01*
X64873078Y-121998888D01*
X64875643Y-122014543D01*
X64876731Y-122021590D01*
X64877737Y-122028128D01*
X64878666Y-122034305D01*
X64879520Y-122040269D01*
X64880304Y-122046168D01*
X64881021Y-122052150D01*
X64881674Y-122058364D01*
X64882268Y-122064957D01*
X64882805Y-122072077D01*
X64883289Y-122079873D01*
X64883723Y-122088492D01*
X64884113Y-122098083D01*
X64884459Y-122108794D01*
X64884768Y-122120772D01*
X64885041Y-122134166D01*
X64885282Y-122149124D01*
X64885496Y-122165794D01*
X64885685Y-122184323D01*
X64885854Y-122204861D01*
X64886005Y-122227555D01*
X64886142Y-122252553D01*
X64886269Y-122280003D01*
X64886389Y-122310053D01*
X64886506Y-122342852D01*
X64886624Y-122378547D01*
X64886746Y-122417286D01*
X64886875Y-122459218D01*
X64886958Y-122486184D01*
X64887096Y-122530156D01*
X64887228Y-122570856D01*
X64887357Y-122608444D01*
X64887485Y-122643078D01*
X64887614Y-122674916D01*
X64887748Y-122704118D01*
X64887889Y-122730842D01*
X64888039Y-122755247D01*
X64888201Y-122777491D01*
X64888377Y-122797734D01*
X64888571Y-122816133D01*
X64888784Y-122832849D01*
X64889019Y-122848038D01*
X64889278Y-122861861D01*
X64889565Y-122874475D01*
X64889881Y-122886040D01*
X64890230Y-122896713D01*
X64890614Y-122906655D01*
X64891034Y-122916024D01*
X64891495Y-122924977D01*
X64891998Y-122933675D01*
X64892546Y-122942275D01*
X64893141Y-122950936D01*
X64893787Y-122959818D01*
X64894485Y-122969078D01*
X64894739Y-122972402D01*
X64898290Y-123013429D01*
X64902470Y-123052309D01*
X64907244Y-123088801D01*
X64912577Y-123122665D01*
X64918433Y-123153662D01*
X64924777Y-123181550D01*
X64926227Y-123187213D01*
X64929480Y-123199648D01*
X64592044Y-123199648D01*
X64589566Y-123194855D01*
X64586458Y-123187155D01*
X64583380Y-123176222D01*
X64580358Y-123162253D01*
X64577421Y-123145447D01*
X64574595Y-123126001D01*
X64571910Y-123104112D01*
X64569392Y-123079977D01*
X64567071Y-123053794D01*
X64564972Y-123025761D01*
X64564305Y-123015685D01*
X64562241Y-122983505D01*
X64555921Y-122998535D01*
X64539895Y-123032811D01*
X64521782Y-123064370D01*
X64501569Y-123093224D01*
X64479245Y-123119387D01*
X64454798Y-123142871D01*
X64428216Y-123163689D01*
X64399487Y-123181856D01*
X64380146Y-123192010D01*
X64350540Y-123204846D01*
X64319878Y-123214997D01*
X64287857Y-123222525D01*
X64254176Y-123227492D01*
X64218534Y-123229960D01*
X64194920Y-123230260D01*
X64184073Y-123230151D01*
X64174104Y-123230000D01*
X64165634Y-123229820D01*
X64159284Y-123229624D01*
X64155675Y-123229426D01*
X64155474Y-123229405D01*
X64151499Y-123228946D01*
X64145200Y-123228225D01*
X64137658Y-123227364D01*
X64134035Y-123226952D01*
X64100283Y-123221526D01*
X64067120Y-123213072D01*
X64034974Y-123201755D01*
X64004271Y-123187740D01*
X63975437Y-123171190D01*
X63957429Y-123158805D01*
X63947713Y-123151054D01*
X63936756Y-123141373D01*
X63925382Y-123130568D01*
X63914419Y-123119446D01*
X63904693Y-123108812D01*
X63898226Y-123101032D01*
X63878205Y-123072722D01*
X63860969Y-123042601D01*
X63846506Y-123010626D01*
X63834806Y-122976755D01*
X63825855Y-122940946D01*
X63819641Y-122903158D01*
X63816154Y-122863347D01*
X63815380Y-122821472D01*
X63815620Y-122810330D01*
X63816794Y-122782907D01*
X64179351Y-122782907D01*
X64181460Y-122805513D01*
X64185715Y-122827177D01*
X64192064Y-122847184D01*
X64196562Y-122857494D01*
X64206364Y-122874190D01*
X64218306Y-122888346D01*
X64232523Y-122900067D01*
X64249151Y-122909458D01*
X64268324Y-122916626D01*
X64274754Y-122918400D01*
X64296347Y-122922474D01*
X64319473Y-122924214D01*
X64343129Y-122923594D01*
X64364833Y-122920855D01*
X64388581Y-122914982D01*
X64410568Y-122906192D01*
X64430741Y-122894544D01*
X64449045Y-122880096D01*
X64465430Y-122862904D01*
X64479841Y-122843028D01*
X64492227Y-122820524D01*
X64502534Y-122795451D01*
X64510711Y-122767866D01*
X64512816Y-122758760D01*
X64514544Y-122750663D01*
X64516045Y-122743226D01*
X64517336Y-122736142D01*
X64518436Y-122729102D01*
X64519362Y-122721800D01*
X64520132Y-122713927D01*
X64520764Y-122705177D01*
X64521277Y-122695243D01*
X64521687Y-122683815D01*
X64522012Y-122670588D01*
X64522272Y-122655254D01*
X64522482Y-122637505D01*
X64522663Y-122617033D01*
X64522830Y-122593532D01*
X64522881Y-122585781D01*
X64523028Y-122562885D01*
X64523147Y-122543186D01*
X64523232Y-122526447D01*
X64523278Y-122512436D01*
X64523280Y-122500917D01*
X64523232Y-122491657D01*
X64523129Y-122484421D01*
X64522966Y-122478974D01*
X64522737Y-122475083D01*
X64522437Y-122472513D01*
X64522061Y-122471030D01*
X64521603Y-122470399D01*
X64521058Y-122470386D01*
X64520421Y-122470757D01*
X64520260Y-122470872D01*
X64499440Y-122485210D01*
X64476999Y-122499210D01*
X64452609Y-122513045D01*
X64425943Y-122526889D01*
X64396674Y-122540919D01*
X64364475Y-122555307D01*
X64351842Y-122560719D01*
X64325461Y-122572594D01*
X64302080Y-122584642D01*
X64281271Y-122597136D01*
X64262605Y-122610350D01*
X64245655Y-122624559D01*
X64233370Y-122636487D01*
X64217381Y-122654839D01*
X64204478Y-122673832D01*
X64194318Y-122694053D01*
X64186557Y-122716086D01*
X64186410Y-122716596D01*
X64181774Y-122737734D01*
X64179438Y-122760076D01*
X64179351Y-122782907D01*
X63816794Y-122782907D01*
X63816799Y-122782800D01*
X63818698Y-122757843D01*
G37*
G36*
X65137799Y-122364808D02*
G01*
X65137869Y-122325612D01*
X65137939Y-122289561D01*
X65138011Y-122256514D01*
X65138084Y-122226326D01*
X65138161Y-122198856D01*
X65138243Y-122173962D01*
X65138331Y-122151501D01*
X65138427Y-122131331D01*
X65138531Y-122113308D01*
X65138646Y-122097291D01*
X65138772Y-122083138D01*
X65138910Y-122070705D01*
X65139062Y-122059850D01*
X65139230Y-122050432D01*
X65139414Y-122042306D01*
X65139615Y-122035332D01*
X65139836Y-122029366D01*
X65140077Y-122024267D01*
X65140339Y-122019891D01*
X65140625Y-122016096D01*
X65140934Y-122012740D01*
X65141269Y-122009680D01*
X65141302Y-122009398D01*
X65146305Y-121973183D01*
X65152428Y-121939019D01*
X65159593Y-121907273D01*
X65167721Y-121878311D01*
X65171854Y-121865761D01*
X65181347Y-121841252D01*
X65192775Y-121816550D01*
X65205669Y-121792523D01*
X65219556Y-121770038D01*
X65233964Y-121749963D01*
X65236519Y-121746744D01*
X65246552Y-121735235D01*
X65258604Y-121722886D01*
X65271732Y-121710585D01*
X65284989Y-121699217D01*
X65296994Y-121689982D01*
X65307380Y-121683142D01*
X65320094Y-121675700D01*
X65334209Y-121668127D01*
X65348794Y-121660893D01*
X65362920Y-121654469D01*
X65375660Y-121649326D01*
X65380882Y-121647493D01*
X65413469Y-121638375D01*
X65447791Y-121631798D01*
X65483262Y-121627775D01*
X65519294Y-121626322D01*
X65555301Y-121627456D01*
X65590694Y-121631190D01*
X65624888Y-121637542D01*
X65637782Y-121640734D01*
X65670131Y-121651101D01*
X65701389Y-121664612D01*
X65731292Y-121681083D01*
X65759572Y-121700328D01*
X65785963Y-121722162D01*
X65810198Y-121746399D01*
X65832011Y-121772854D01*
X65836335Y-121778781D01*
X65844805Y-121790650D01*
X65845671Y-121081552D01*
X66210970Y-121081552D01*
X66211023Y-121903493D01*
X66211029Y-121972926D01*
X66211041Y-122039018D01*
X66211057Y-122101859D01*
X66211079Y-122161539D01*
X66211107Y-122218146D01*
X66211141Y-122271771D01*
X66211182Y-122322502D01*
X66211230Y-122370430D01*
X66211286Y-122415643D01*
X66211350Y-122458231D01*
X66211423Y-122498284D01*
X66211505Y-122535891D01*
X66211596Y-122571142D01*
X66211697Y-122604126D01*
X66211809Y-122634933D01*
X66211931Y-122663651D01*
X66212065Y-122690371D01*
X66212211Y-122715182D01*
X66212368Y-122738173D01*
X66212538Y-122759435D01*
X66212722Y-122779056D01*
X66212918Y-122797125D01*
X66213129Y-122813733D01*
X66213354Y-122828969D01*
X66213594Y-122842923D01*
X66213849Y-122855683D01*
X66214120Y-122867339D01*
X66214407Y-122877981D01*
X66214710Y-122887698D01*
X66215031Y-122896580D01*
X66215369Y-122904717D01*
X66215725Y-122912196D01*
X66216057Y-122918378D01*
X66219229Y-122966682D01*
X66223077Y-123011953D01*
X66227592Y-123054130D01*
X66232767Y-123093155D01*
X66238595Y-123128967D01*
X66245068Y-123161506D01*
X66249672Y-123181093D01*
X66251436Y-123188200D01*
X66252831Y-123193996D01*
X66253677Y-123197722D01*
X66253846Y-123198672D01*
X66252170Y-123198809D01*
X66247295Y-123198941D01*
X66239452Y-123199065D01*
X66228873Y-123199181D01*
X66215789Y-123199287D01*
X66200431Y-123199382D01*
X66183031Y-123199465D01*
X66163820Y-123199534D01*
X66143029Y-123199588D01*
X66120889Y-123199625D01*
X66097632Y-123199645D01*
X66084819Y-123199648D01*
X65915791Y-123199648D01*
X65911826Y-123190644D01*
X65908137Y-123180439D01*
X65904625Y-123167145D01*
X65901339Y-123151096D01*
X65898325Y-123132630D01*
X65895631Y-123112084D01*
X65893302Y-123089795D01*
X65891386Y-123066099D01*
X65889930Y-123041333D01*
X65889435Y-123029857D01*
X65889006Y-123019595D01*
X65888522Y-123009563D01*
X65888035Y-123000712D01*
X65887593Y-122993995D01*
X65887455Y-122992281D01*
X65886492Y-122981287D01*
X65880954Y-122993996D01*
X65864048Y-123028975D01*
X65845019Y-123061274D01*
X65823923Y-123090858D01*
X65800815Y-123117694D01*
X65775752Y-123141752D01*
X65748788Y-123162996D01*
X65719981Y-123181396D01*
X65689385Y-123196917D01*
X65657058Y-123209528D01*
X65623054Y-123219195D01*
X65587430Y-123225886D01*
X65550242Y-123229568D01*
X65511545Y-123230209D01*
X65480355Y-123228576D01*
X65443562Y-123224107D01*
X65408733Y-123216854D01*
X65375895Y-123206835D01*
X65345073Y-123194065D01*
X65316291Y-123178562D01*
X65289576Y-123160340D01*
X65264951Y-123139418D01*
X65242442Y-123115810D01*
X65222075Y-123089533D01*
X65203874Y-123060605D01*
X65194372Y-123042720D01*
X65180283Y-123011418D01*
X65168240Y-122978062D01*
X65158203Y-122942491D01*
X65150134Y-122904546D01*
X65143995Y-122864067D01*
X65139749Y-122820894D01*
X65139021Y-122810330D01*
X65138777Y-122805080D01*
X65138556Y-122797333D01*
X65138357Y-122787025D01*
X65138181Y-122774092D01*
X65138028Y-122758472D01*
X65137896Y-122740100D01*
X65137787Y-122718913D01*
X65137699Y-122694848D01*
X65137633Y-122667840D01*
X65137588Y-122637827D01*
X65137564Y-122604744D01*
X65137561Y-122568529D01*
X65137579Y-122529118D01*
X65137618Y-122486447D01*
X65137676Y-122440452D01*
X65137698Y-122426393D01*
X65504366Y-122426393D01*
X65504377Y-122468759D01*
X65504407Y-122508429D01*
X65504457Y-122545347D01*
X65504527Y-122579454D01*
X65504616Y-122610691D01*
X65504724Y-122638999D01*
X65504851Y-122664321D01*
X65504996Y-122686597D01*
X65505158Y-122705769D01*
X65505339Y-122721779D01*
X65505537Y-122734568D01*
X65505752Y-122744077D01*
X65505983Y-122750249D01*
X65506124Y-122752265D01*
X65509506Y-122778148D01*
X65514297Y-122801195D01*
X65520608Y-122821742D01*
X65528550Y-122840127D01*
X65538233Y-122856689D01*
X65542068Y-122862135D01*
X65554419Y-122876024D01*
X65569384Y-122887806D01*
X65586804Y-122897394D01*
X65606520Y-122904702D01*
X65628374Y-122909643D01*
X65629246Y-122909783D01*
X65638043Y-122910672D01*
X65649177Y-122911045D01*
X65661710Y-122910945D01*
X65674707Y-122910411D01*
X65687233Y-122909485D01*
X65698352Y-122908207D01*
X65707127Y-122906617D01*
X65708185Y-122906354D01*
X65729071Y-122899734D01*
X65747472Y-122891308D01*
X65764003Y-122880732D01*
X65779281Y-122867665D01*
X65781126Y-122865847D01*
X65794856Y-122850179D01*
X65806838Y-122832319D01*
X65817139Y-122812098D01*
X65825826Y-122789349D01*
X65832966Y-122763904D01*
X65838625Y-122735597D01*
X65841704Y-122714286D01*
X65842122Y-122710761D01*
X65842500Y-122707084D01*
X65842841Y-122703081D01*
X65843147Y-122698576D01*
X65843420Y-122693392D01*
X65843661Y-122687355D01*
X65843873Y-122680290D01*
X65844057Y-122672020D01*
X65844216Y-122662369D01*
X65844350Y-122651164D01*
X65844463Y-122638227D01*
X65844555Y-122623383D01*
X65844629Y-122606458D01*
X65844688Y-122587274D01*
X65844731Y-122565657D01*
X65844762Y-122541432D01*
X65844783Y-122514422D01*
X65844795Y-122484452D01*
X65844800Y-122451347D01*
X65844800Y-122390857D01*
X65844796Y-122357949D01*
X65844785Y-122328112D01*
X65844760Y-122301166D01*
X65844716Y-122276930D01*
X65844648Y-122255224D01*
X65844551Y-122235870D01*
X65844419Y-122218686D01*
X65844248Y-122203493D01*
X65844031Y-122190111D01*
X65843763Y-122178360D01*
X65843440Y-122168060D01*
X65843056Y-122159032D01*
X65842605Y-122151095D01*
X65842082Y-122144070D01*
X65841483Y-122137776D01*
X65840801Y-122132034D01*
X65840032Y-122126663D01*
X65839170Y-122121485D01*
X65838209Y-122116319D01*
X65837146Y-122110985D01*
X65835973Y-122105303D01*
X65835230Y-122101721D01*
X65832636Y-122090804D01*
X65829175Y-122078514D01*
X65825170Y-122065828D01*
X65820940Y-122053723D01*
X65816809Y-122043175D01*
X65813631Y-122036192D01*
X65803418Y-122018581D01*
X65791261Y-122002109D01*
X65777709Y-121987386D01*
X65763306Y-121975023D01*
X65752270Y-121967662D01*
X65739509Y-121961196D01*
X65724675Y-121955267D01*
X65709124Y-121950366D01*
X65696453Y-121947397D01*
X65687445Y-121946206D01*
X65676038Y-121945490D01*
X65663228Y-121945236D01*
X65650012Y-121945435D01*
X65637386Y-121946074D01*
X65626347Y-121947144D01*
X65619555Y-121948253D01*
X65601391Y-121952864D01*
X65585832Y-121958679D01*
X65572157Y-121966066D01*
X65559645Y-121975391D01*
X65551588Y-121982872D01*
X65541173Y-121994551D01*
X65532478Y-122007236D01*
X65525190Y-122021534D01*
X65518997Y-122038053D01*
X65513926Y-122056015D01*
X65512785Y-122060610D01*
X65511739Y-122064935D01*
X65510783Y-122069149D01*
X65509913Y-122073411D01*
X65509126Y-122077878D01*
X65508417Y-122082710D01*
X65507782Y-122088065D01*
X65507218Y-122094102D01*
X65506719Y-122100979D01*
X65506282Y-122108855D01*
X65505903Y-122117888D01*
X65505577Y-122128237D01*
X65505301Y-122140061D01*
X65505071Y-122153517D01*
X65504881Y-122168765D01*
X65504730Y-122185963D01*
X65504611Y-122205270D01*
X65504521Y-122226844D01*
X65504457Y-122250844D01*
X65504413Y-122277428D01*
X65504387Y-122306755D01*
X65504373Y-122338984D01*
X65504367Y-122374272D01*
X65504366Y-122412780D01*
X65504366Y-122426393D01*
X65137698Y-122426393D01*
X65137728Y-122407291D01*
X65137799Y-122364808D01*
G37*
G36*
X47578586Y-121417703D02*
G01*
X47182408Y-121417703D01*
X47182408Y-123199648D01*
X46803380Y-123199648D01*
X46803380Y-121417703D01*
X46408917Y-121417703D01*
X46408917Y-121081552D01*
X47578586Y-121081552D01*
X47578586Y-121417703D01*
G37*
G36*
X49568354Y-121626167D02*
G01*
X49584094Y-121626733D01*
X49598117Y-121627605D01*
X49609689Y-121628785D01*
X49612644Y-121629209D01*
X49646960Y-121635884D01*
X49678757Y-121644760D01*
X49708195Y-121655896D01*
X49735435Y-121669350D01*
X49753279Y-121680176D01*
X49779629Y-121699442D01*
X49803734Y-121721143D01*
X49825655Y-121745355D01*
X49845454Y-121772156D01*
X49863193Y-121801623D01*
X49878934Y-121833835D01*
X49882818Y-121842938D01*
X49889441Y-121858916D01*
X49893707Y-121848833D01*
X49909046Y-121816649D01*
X49926895Y-121786524D01*
X49947105Y-121758591D01*
X49969528Y-121732981D01*
X49994013Y-121709828D01*
X50020411Y-121689264D01*
X50048574Y-121671421D01*
X50078351Y-121656432D01*
X50109594Y-121644430D01*
X50131069Y-121638177D01*
X50145165Y-121634689D01*
X50157543Y-121631932D01*
X50168930Y-121629821D01*
X50180054Y-121628276D01*
X50191643Y-121627214D01*
X50204425Y-121626553D01*
X50219129Y-121626209D01*
X50236481Y-121626101D01*
X50237783Y-121626100D01*
X50254962Y-121626166D01*
X50269438Y-121626421D01*
X50281932Y-121626931D01*
X50293169Y-121627758D01*
X50303873Y-121628968D01*
X50314766Y-121630625D01*
X50326572Y-121632794D01*
X50337256Y-121634960D01*
X50369968Y-121643439D01*
X50400997Y-121654854D01*
X50430244Y-121669143D01*
X50457608Y-121686241D01*
X50482989Y-121706086D01*
X50506286Y-121728613D01*
X50527398Y-121753760D01*
X50529426Y-121756471D01*
X50547034Y-121782917D01*
X50562832Y-121812158D01*
X50576767Y-121844047D01*
X50588788Y-121878435D01*
X50598843Y-121915175D01*
X50606883Y-121954117D01*
X50612855Y-121995113D01*
X50613313Y-121999107D01*
X50613860Y-122004143D01*
X50614373Y-122009243D01*
X50614853Y-122014524D01*
X50615302Y-122020103D01*
X50615719Y-122026096D01*
X50616107Y-122032620D01*
X50616467Y-122039790D01*
X50616799Y-122047724D01*
X50617104Y-122056538D01*
X50617385Y-122066348D01*
X50617641Y-122077272D01*
X50617874Y-122089424D01*
X50618085Y-122102923D01*
X50618275Y-122117884D01*
X50618445Y-122134424D01*
X50618597Y-122152659D01*
X50618731Y-122172706D01*
X50618848Y-122194681D01*
X50618950Y-122218701D01*
X50619037Y-122244882D01*
X50619111Y-122273341D01*
X50619173Y-122304194D01*
X50619224Y-122337558D01*
X50619265Y-122373549D01*
X50619296Y-122412284D01*
X50619320Y-122453878D01*
X50619338Y-122498450D01*
X50619349Y-122546114D01*
X50619356Y-122596988D01*
X50619359Y-122645255D01*
X50619383Y-123199648D01*
X50252361Y-123199648D01*
X50252346Y-122668409D01*
X50252339Y-122613127D01*
X50252320Y-122560466D01*
X50252290Y-122510474D01*
X50252249Y-122463197D01*
X50252198Y-122418683D01*
X50252135Y-122376981D01*
X50252062Y-122338137D01*
X50251979Y-122302200D01*
X50251885Y-122269216D01*
X50251781Y-122239234D01*
X50251667Y-122212302D01*
X50251543Y-122188466D01*
X50251410Y-122167775D01*
X50251267Y-122150275D01*
X50251115Y-122136016D01*
X50250953Y-122125043D01*
X50250783Y-122117406D01*
X50250604Y-122113159D01*
X50248469Y-122089875D01*
X50245553Y-122069383D01*
X50241724Y-122051107D01*
X50236850Y-122034472D01*
X50230798Y-122018901D01*
X50227183Y-122011117D01*
X50222965Y-122002990D01*
X50218842Y-121996390D01*
X50214012Y-121990224D01*
X50207675Y-121983399D01*
X50204483Y-121980185D01*
X50191361Y-121968680D01*
X50177392Y-121959627D01*
X50162057Y-121952808D01*
X50144836Y-121948005D01*
X50125209Y-121945003D01*
X50119015Y-121944439D01*
X50093668Y-121943831D01*
X50069727Y-121946071D01*
X50047352Y-121951098D01*
X50026701Y-121958851D01*
X50007930Y-121969270D01*
X49991199Y-121982293D01*
X49976664Y-121997861D01*
X49975023Y-121999965D01*
X49963485Y-122017509D01*
X49953376Y-122037998D01*
X49944760Y-122061230D01*
X49937700Y-122087006D01*
X49932261Y-122115122D01*
X49928505Y-122145379D01*
X49928241Y-122148317D01*
X49928062Y-122152141D01*
X49927892Y-122159344D01*
X49927730Y-122169878D01*
X49927579Y-122183693D01*
X49927436Y-122200740D01*
X49927303Y-122220967D01*
X49927180Y-122244327D01*
X49927067Y-122270768D01*
X49926963Y-122300241D01*
X49926871Y-122332697D01*
X49926788Y-122368086D01*
X49926716Y-122406358D01*
X49926655Y-122447463D01*
X49926604Y-122491352D01*
X49926565Y-122537974D01*
X49926537Y-122587281D01*
X49926520Y-122639221D01*
X49926515Y-122683844D01*
X49926500Y-123199648D01*
X49559478Y-123199648D01*
X49559463Y-122667551D01*
X49559455Y-122612252D01*
X49559437Y-122559570D01*
X49559407Y-122509552D01*
X49559366Y-122462246D01*
X49559315Y-122417699D01*
X49559252Y-122375960D01*
X49559179Y-122337076D01*
X49559096Y-122301095D01*
X49559003Y-122268066D01*
X49558899Y-122238035D01*
X49558785Y-122211051D01*
X49558662Y-122187162D01*
X49558529Y-122166414D01*
X49558386Y-122148857D01*
X49558235Y-122134538D01*
X49558074Y-122123505D01*
X49557903Y-122115805D01*
X49557724Y-122111487D01*
X49557721Y-122111444D01*
X49554746Y-122082509D01*
X49550159Y-122056555D01*
X49543900Y-122033506D01*
X49535910Y-122013283D01*
X49526129Y-121995809D01*
X49514498Y-121981007D01*
X49500957Y-121968799D01*
X49485445Y-121959107D01*
X49467903Y-121951855D01*
X49448272Y-121946965D01*
X49429035Y-121944539D01*
X49403326Y-121943926D01*
X49379150Y-121946111D01*
X49356645Y-121951044D01*
X49335948Y-121958677D01*
X49317196Y-121968960D01*
X49300526Y-121981844D01*
X49287788Y-121995174D01*
X49276156Y-122010894D01*
X49266040Y-122028322D01*
X49257311Y-122047778D01*
X49249843Y-122069588D01*
X49243508Y-122094074D01*
X49238294Y-122120876D01*
X49237949Y-122122943D01*
X49237627Y-122124989D01*
X49237327Y-122127133D01*
X49237047Y-122129493D01*
X49236787Y-122132185D01*
X49236546Y-122135327D01*
X49236323Y-122139037D01*
X49236117Y-122143431D01*
X49235928Y-122148627D01*
X49235754Y-122154743D01*
X49235594Y-122161896D01*
X49235449Y-122170203D01*
X49235315Y-122179781D01*
X49235194Y-122190748D01*
X49235084Y-122203222D01*
X49234984Y-122217319D01*
X49234893Y-122233158D01*
X49234810Y-122250855D01*
X49234735Y-122270528D01*
X49234666Y-122292294D01*
X49234602Y-122316270D01*
X49234544Y-122342575D01*
X49234489Y-122371325D01*
X49234438Y-122402638D01*
X49234388Y-122436630D01*
X49234339Y-122473421D01*
X49234291Y-122513126D01*
X49234242Y-122555863D01*
X49234192Y-122601750D01*
X49234139Y-122650904D01*
X49234117Y-122670981D01*
X49233553Y-123199648D01*
X48866595Y-123199648D01*
X48866595Y-121656096D01*
X49185009Y-121656096D01*
X49187252Y-121746432D01*
X49187710Y-121764371D01*
X49188177Y-121781798D01*
X49188641Y-121798310D01*
X49189090Y-121813505D01*
X49189512Y-121826980D01*
X49189895Y-121838335D01*
X49190225Y-121847166D01*
X49190491Y-121853071D01*
X49190547Y-121854052D01*
X49191598Y-121871336D01*
X49196526Y-121858473D01*
X49200733Y-121848454D01*
X49206350Y-121836455D01*
X49212910Y-121823366D01*
X49219948Y-121810080D01*
X49226995Y-121797486D01*
X49233586Y-121786476D01*
X49237072Y-121781082D01*
X49258088Y-121752641D01*
X49281008Y-121727045D01*
X49305848Y-121704287D01*
X49332620Y-121684357D01*
X49361336Y-121667249D01*
X49392010Y-121652953D01*
X49424656Y-121641461D01*
X49459286Y-121632766D01*
X49478931Y-121629212D01*
X49489572Y-121627938D01*
X49502895Y-121626971D01*
X49518169Y-121626310D01*
X49534658Y-121625956D01*
X49551632Y-121625908D01*
X49568354Y-121626167D01*
G37*
G36*
X51259100Y-123199648D02*
G01*
X50892077Y-123199648D01*
X50892077Y-121656096D01*
X51259100Y-121656096D01*
X51259100Y-123199648D01*
G37*
G36*
X53387450Y-121051997D02*
G01*
X53435032Y-121055900D01*
X53480475Y-121062389D01*
X53523757Y-121071453D01*
X53564859Y-121083084D01*
X53603758Y-121097269D01*
X53640434Y-121113999D01*
X53674866Y-121133264D01*
X53707032Y-121155052D01*
X53736913Y-121179353D01*
X53764487Y-121206158D01*
X53789732Y-121235455D01*
X53812629Y-121267234D01*
X53829956Y-121295704D01*
X53846487Y-121328254D01*
X53860971Y-121363412D01*
X53873353Y-121400995D01*
X53883576Y-121440817D01*
X53891586Y-121482693D01*
X53896122Y-121515461D01*
X53897284Y-121527777D01*
X53898257Y-121542781D01*
X53899027Y-121559737D01*
X53899582Y-121577907D01*
X53899910Y-121596555D01*
X53899996Y-121614944D01*
X53899829Y-121632336D01*
X53899396Y-121647995D01*
X53898683Y-121661183D01*
X53898665Y-121661435D01*
X53893894Y-121707332D01*
X53886436Y-121751915D01*
X53876197Y-121795449D01*
X53863082Y-121838201D01*
X53846996Y-121880437D01*
X53827847Y-121922424D01*
X53805538Y-121964428D01*
X53779977Y-122006717D01*
X53772388Y-122018396D01*
X53753580Y-122046094D01*
X53733598Y-122073878D01*
X53712297Y-122101907D01*
X53689533Y-122130341D01*
X53665161Y-122159338D01*
X53639037Y-122189058D01*
X53611017Y-122219660D01*
X53580957Y-122251303D01*
X53548711Y-122284147D01*
X53514135Y-122318350D01*
X53477086Y-122354071D01*
X53437418Y-122391470D01*
X53414895Y-122412384D01*
X53384482Y-122440790D01*
X53356695Y-122467397D01*
X53331361Y-122492391D01*
X53308310Y-122515957D01*
X53287371Y-122538283D01*
X53268370Y-122559555D01*
X53251139Y-122579958D01*
X53235503Y-122599679D01*
X53221294Y-122618904D01*
X53210751Y-122634181D01*
X53192961Y-122662884D01*
X53178336Y-122691201D01*
X53166724Y-122719628D01*
X53157975Y-122748659D01*
X53151937Y-122778790D01*
X53148462Y-122810518D01*
X53147395Y-122842487D01*
X53147378Y-122863496D01*
X53864272Y-122863496D01*
X53864272Y-123199648D01*
X52771511Y-123199648D01*
X52772254Y-123035431D01*
X52772388Y-123006691D01*
X52772522Y-122981118D01*
X52772667Y-122958445D01*
X52772833Y-122938409D01*
X52773029Y-122920745D01*
X52773266Y-122905188D01*
X52773554Y-122891474D01*
X52773903Y-122879339D01*
X52774324Y-122868518D01*
X52774826Y-122858746D01*
X52775420Y-122849759D01*
X52776116Y-122841293D01*
X52776924Y-122833082D01*
X52777854Y-122824863D01*
X52778916Y-122816371D01*
X52780121Y-122807341D01*
X52781365Y-122798324D01*
X52788027Y-122757960D01*
X52796714Y-122718378D01*
X52807510Y-122679443D01*
X52820495Y-122641021D01*
X52835754Y-122602978D01*
X52853369Y-122565179D01*
X52873423Y-122527489D01*
X52895998Y-122489775D01*
X52921177Y-122451901D01*
X52949044Y-122413734D01*
X52979680Y-122375138D01*
X53013168Y-122335980D01*
X53049592Y-122296125D01*
X53089033Y-122255439D01*
X53131575Y-122213786D01*
X53154238Y-122192366D01*
X53184481Y-122163982D01*
X53212266Y-122137659D01*
X53237752Y-122113238D01*
X53261098Y-122090562D01*
X53282460Y-122069472D01*
X53301998Y-122049810D01*
X53319870Y-122031418D01*
X53336234Y-122014137D01*
X53351247Y-121997809D01*
X53365069Y-121982276D01*
X53370590Y-121975912D01*
X53396871Y-121944294D01*
X53420190Y-121913882D01*
X53440690Y-121884425D01*
X53458516Y-121855672D01*
X53473812Y-121827372D01*
X53486720Y-121799275D01*
X53497384Y-121771129D01*
X53505949Y-121742684D01*
X53507380Y-121737110D01*
X53512862Y-121712637D01*
X53516872Y-121688682D01*
X53519526Y-121664240D01*
X53520940Y-121638307D01*
X53521257Y-121616650D01*
X53520194Y-121583221D01*
X53517003Y-121552476D01*
X53511675Y-121524399D01*
X53504203Y-121498979D01*
X53494579Y-121476202D01*
X53482795Y-121456055D01*
X53468842Y-121438524D01*
X53452714Y-121423596D01*
X53434402Y-121411258D01*
X53413899Y-121401497D01*
X53391196Y-121394300D01*
X53388926Y-121393749D01*
X53361679Y-121388935D01*
X53333341Y-121387018D01*
X53304713Y-121388034D01*
X53292698Y-121389357D01*
X53266922Y-121394183D01*
X53243447Y-121401503D01*
X53222259Y-121411335D01*
X53203342Y-121423698D01*
X53186682Y-121438608D01*
X53172263Y-121456085D01*
X53160069Y-121476145D01*
X53150087Y-121498808D01*
X53142299Y-121524090D01*
X53136692Y-121552010D01*
X53133683Y-121577203D01*
X53133373Y-121582512D01*
X53133081Y-121590880D01*
X53132811Y-121601935D01*
X53132569Y-121615305D01*
X53132360Y-121630620D01*
X53132189Y-121647507D01*
X53132061Y-121665596D01*
X53131982Y-121684514D01*
X53131957Y-121701974D01*
X53131942Y-121807021D01*
X52775210Y-121807021D01*
X52775210Y-121689789D01*
X52775236Y-121669335D01*
X52775310Y-121649354D01*
X52775429Y-121630197D01*
X52775587Y-121612217D01*
X52775780Y-121595764D01*
X52776005Y-121581192D01*
X52776256Y-121568852D01*
X52776529Y-121559097D01*
X52776820Y-121552277D01*
X52776942Y-121550440D01*
X52782063Y-121502929D01*
X52789817Y-121457572D01*
X52800200Y-121414381D01*
X52813208Y-121373366D01*
X52828836Y-121334539D01*
X52847082Y-121297910D01*
X52867941Y-121263491D01*
X52889458Y-121233758D01*
X52897227Y-121224518D01*
X52907072Y-121213800D01*
X52918354Y-121202222D01*
X52930433Y-121190403D01*
X52942670Y-121178960D01*
X52954426Y-121168513D01*
X52965062Y-121159679D01*
X52969869Y-121155979D01*
X53002452Y-121133800D01*
X53036957Y-121114272D01*
X53073432Y-121097383D01*
X53111924Y-121083118D01*
X53152480Y-121071465D01*
X53195147Y-121062409D01*
X53239973Y-121055938D01*
X53287005Y-121052037D01*
X53336290Y-121050693D01*
X53337749Y-121050692D01*
X53387450Y-121051997D01*
G37*
G36*
X56608364Y-123199648D02*
G01*
X56251635Y-123199648D01*
X56251205Y-122407938D01*
X56250774Y-121616228D01*
X55971220Y-123198790D01*
X55652219Y-123198790D01*
X55372665Y-121616252D01*
X55372234Y-122407950D01*
X55371804Y-123199648D01*
X55042516Y-123199648D01*
X55042516Y-121081552D01*
X55308779Y-121081562D01*
X55575042Y-121081573D01*
X55700153Y-121833186D01*
X55825265Y-122584800D01*
X55950549Y-121833176D01*
X56075832Y-121081552D01*
X56608364Y-121081552D01*
X56608364Y-123199648D01*
G37*
G36*
X60110349Y-121625791D02*
G01*
X60131713Y-121627495D01*
X60150364Y-121630382D01*
X60166570Y-121634493D01*
X60180246Y-121639708D01*
X60189403Y-121643901D01*
X60189403Y-121994404D01*
X60180399Y-121993181D01*
X60161826Y-121991151D01*
X60141080Y-121989728D01*
X60119265Y-121988937D01*
X60097487Y-121988800D01*
X60076850Y-121989341D01*
X60058460Y-121990584D01*
X60058448Y-121990586D01*
X60026033Y-121995047D01*
X59995520Y-122002079D01*
X59967053Y-122011635D01*
X59940778Y-122023668D01*
X59919869Y-122036077D01*
X59897081Y-122053239D01*
X59876497Y-122072926D01*
X59858106Y-122095159D01*
X59841898Y-122119958D01*
X59827864Y-122147344D01*
X59815994Y-122177336D01*
X59806277Y-122209955D01*
X59798705Y-122245221D01*
X59793267Y-122283155D01*
X59791598Y-122300100D01*
X59791388Y-122304335D01*
X59791190Y-122311972D01*
X59791005Y-122322986D01*
X59790833Y-122337349D01*
X59790674Y-122355034D01*
X59790528Y-122376014D01*
X59790395Y-122400263D01*
X59790276Y-122427752D01*
X59790170Y-122458456D01*
X59790077Y-122492347D01*
X59789999Y-122529398D01*
X59789933Y-122569582D01*
X59789882Y-122612873D01*
X59789845Y-122659243D01*
X59789822Y-122708665D01*
X59789813Y-122760164D01*
X59789795Y-123199648D01*
X59422773Y-123199648D01*
X59422773Y-121656096D01*
X59741132Y-121656096D01*
X59743196Y-121766288D01*
X59743582Y-121786413D01*
X59743980Y-121806290D01*
X59744381Y-121825524D01*
X59744775Y-121843717D01*
X59745155Y-121860475D01*
X59745511Y-121875402D01*
X59745833Y-121888102D01*
X59746114Y-121898178D01*
X59746344Y-121905236D01*
X59746351Y-121905440D01*
X59747442Y-121934398D01*
X59753217Y-121913157D01*
X59764147Y-121876633D01*
X59776341Y-121842961D01*
X59789961Y-121811742D01*
X59805170Y-121782580D01*
X59810702Y-121773112D01*
X59828107Y-121747102D01*
X59847775Y-121723099D01*
X59869403Y-121701391D01*
X59892688Y-121682267D01*
X59917329Y-121666017D01*
X59930514Y-121658829D01*
X59955039Y-121647675D01*
X59980141Y-121638890D01*
X60006309Y-121632367D01*
X60034031Y-121628001D01*
X60063798Y-121625686D01*
X60086004Y-121625230D01*
X60110349Y-121625791D01*
G37*
G36*
X62873332Y-121081552D02*
G01*
X62912759Y-121081554D01*
X62948926Y-121081565D01*
X62982005Y-121081585D01*
X63012165Y-121081620D01*
X63039578Y-121081671D01*
X63064413Y-121081742D01*
X63086841Y-121081836D01*
X63107034Y-121081957D01*
X63125161Y-121082106D01*
X63141393Y-121082288D01*
X63155900Y-121082506D01*
X63168854Y-121082762D01*
X63180425Y-121083060D01*
X63190783Y-121083403D01*
X63200099Y-121083793D01*
X63208543Y-121084235D01*
X63216286Y-121084731D01*
X63223500Y-121085284D01*
X63230353Y-121085897D01*
X63237017Y-121086575D01*
X63243663Y-121087318D01*
X63250460Y-121088132D01*
X63253353Y-121088489D01*
X63298656Y-121095455D01*
X63341476Y-121104786D01*
X63381817Y-121116488D01*
X63419683Y-121130563D01*
X63455081Y-121147017D01*
X63488015Y-121165854D01*
X63518490Y-121187079D01*
X63546511Y-121210696D01*
X63572083Y-121236710D01*
X63595210Y-121265124D01*
X63615897Y-121295945D01*
X63634151Y-121329175D01*
X63649974Y-121364821D01*
X63663373Y-121402885D01*
X63674352Y-121443373D01*
X63682041Y-121481160D01*
X63684433Y-121495551D01*
X63686536Y-121509750D01*
X63688363Y-121524052D01*
X63689929Y-121538752D01*
X63691247Y-121554144D01*
X63692331Y-121570525D01*
X63693195Y-121588190D01*
X63693853Y-121607432D01*
X63694318Y-121628549D01*
X63694605Y-121651834D01*
X63694727Y-121677583D01*
X63694698Y-121706092D01*
X63694531Y-121737654D01*
X63694466Y-121746609D01*
X63694280Y-121767209D01*
X63694050Y-121787190D01*
X63693782Y-121806211D01*
X63693483Y-121823936D01*
X63693160Y-121840025D01*
X63692820Y-121854140D01*
X63692470Y-121865942D01*
X63692117Y-121875094D01*
X63691767Y-121881257D01*
X63691663Y-121882484D01*
X63687423Y-121920208D01*
X63682228Y-121955029D01*
X63675970Y-121987367D01*
X63668538Y-122017644D01*
X63659824Y-122046281D01*
X63649717Y-122073699D01*
X63638109Y-122100318D01*
X63631331Y-122114206D01*
X63612811Y-122147169D01*
X63591794Y-122177787D01*
X63568296Y-122206051D01*
X63542332Y-122231950D01*
X63513920Y-122255473D01*
X63483076Y-122276609D01*
X63449816Y-122295347D01*
X63414157Y-122311678D01*
X63376115Y-122325589D01*
X63335706Y-122337070D01*
X63292948Y-122346111D01*
X63270303Y-122349770D01*
X63259943Y-122351253D01*
X63250388Y-122352546D01*
X63241315Y-122353665D01*
X63232403Y-122354623D01*
X63223329Y-122355437D01*
X63213773Y-122356121D01*
X63203412Y-122356691D01*
X63191923Y-122357160D01*
X63178986Y-122357544D01*
X63164278Y-122357858D01*
X63147478Y-122358118D01*
X63128263Y-122358337D01*
X63106312Y-122358530D01*
X63081302Y-122358714D01*
X63077131Y-122358742D01*
X62952361Y-122359588D01*
X62952361Y-123199648D01*
X62573333Y-123199648D01*
X62573333Y-122023118D01*
X62952361Y-122023118D01*
X63047118Y-122023117D01*
X63065739Y-122023084D01*
X63083816Y-122022989D01*
X63100960Y-122022838D01*
X63116779Y-122022638D01*
X63130882Y-122022395D01*
X63142880Y-122022114D01*
X63152381Y-122021802D01*
X63158996Y-122021466D01*
X63160713Y-122021329D01*
X63183928Y-122018323D01*
X63204360Y-122013887D01*
X63222416Y-122007854D01*
X63238499Y-122000059D01*
X63253017Y-121990336D01*
X63266374Y-121978518D01*
X63267074Y-121977814D01*
X63279015Y-121964207D01*
X63288612Y-121949717D01*
X63296424Y-121933414D01*
X63300575Y-121922112D01*
X63303259Y-121913748D01*
X63305624Y-121905572D01*
X63307690Y-121897323D01*
X63309472Y-121888740D01*
X63310990Y-121879563D01*
X63312260Y-121869532D01*
X63313300Y-121858384D01*
X63314129Y-121845861D01*
X63314762Y-121831701D01*
X63315219Y-121815644D01*
X63315516Y-121797429D01*
X63315672Y-121776795D01*
X63315703Y-121753482D01*
X63315628Y-121727229D01*
X63315489Y-121701545D01*
X63315326Y-121677407D01*
X63315159Y-121656434D01*
X63314980Y-121638359D01*
X63314782Y-121622918D01*
X63314559Y-121609845D01*
X63314303Y-121598874D01*
X63314009Y-121589740D01*
X63313668Y-121582176D01*
X63313274Y-121575918D01*
X63312820Y-121570700D01*
X63312299Y-121566256D01*
X63311902Y-121563534D01*
X63307657Y-121541226D01*
X63302294Y-121521494D01*
X63295595Y-121503603D01*
X63291559Y-121494881D01*
X63287038Y-121486125D01*
X63282886Y-121479278D01*
X63278269Y-121473183D01*
X63272355Y-121466690D01*
X63268010Y-121462294D01*
X63257284Y-121452306D01*
X63247184Y-121444574D01*
X63236593Y-121438403D01*
X63224392Y-121433095D01*
X63216831Y-121430374D01*
X63210376Y-121428189D01*
X63204530Y-121426301D01*
X63198991Y-121424687D01*
X63193460Y-121423324D01*
X63187636Y-121422187D01*
X63181218Y-121421253D01*
X63173907Y-121420499D01*
X63165401Y-121419901D01*
X63155402Y-121419435D01*
X63143607Y-121419078D01*
X63129717Y-121418806D01*
X63113431Y-121418596D01*
X63094448Y-121418424D01*
X63072470Y-121418266D01*
X63061696Y-121418195D01*
X62952361Y-121417476D01*
X62952361Y-122023118D01*
X62573333Y-122023118D01*
X62573333Y-121081552D01*
X62873332Y-121081552D01*
G37*
G36*
X54814414Y-122446737D02*
G01*
X54058073Y-122446737D01*
X54058073Y-122138027D01*
X54814414Y-122138027D01*
X54814414Y-122446737D01*
G37*
G36*
X62346946Y-122446737D02*
G01*
X61590605Y-122446737D01*
X61590605Y-122138027D01*
X62346946Y-122138027D01*
X62346946Y-122446737D01*
G37*
G36*
X51259100Y-121457149D02*
G01*
X50892077Y-121457149D01*
X50892077Y-121078122D01*
X51259100Y-121078122D01*
X51259100Y-121457149D01*
G37*
%TD*%
M02*
