M48
; DRILL file {KiCad (6.0.9)} date Fri Nov 11 17:55:22 2022
; FORMAT={-:-/ absolute / inch / decimal}
; #@! TF.CreationDate,2022-11-11T17:55:22+11:00
; #@! TF.GenerationSoftware,Kicad,Pcbnew,(6.0.9)
; #@! TF.FileFunction,Plated,1,2,PTH
FMAT,2
INCH
; #@! TA.AperFunction,Plated,PTH,ViaDrill
T1C0.0157
; #@! TA.AperFunction,Plated,PTH,ComponentDrill
T2C0.0276
; #@! TA.AperFunction,Plated,PTH,ComponentDrill
T3C0.0579
%
G90
G05
T1
X2.185Y-4.67
X2.22Y-3.945
X2.405Y-4.125
X2.405Y-4.27
X2.405Y-4.5
X2.99Y-4.695
X3.135Y-4.19
T3
X3.3813Y-3.775
X3.3813Y-4.525
X3.6313Y-3.675
X3.6313Y-4.425
X4.1312Y-3.775
X4.1312Y-4.525
X4.3812Y-3.675
X4.3812Y-4.425
T2
G00X1.8438Y-3.5389
M15
G01X1.8438Y-3.5861
M16
G05
G00X1.8438Y-3.716
M15
G01X1.8438Y-3.7633
M16
G05
G00X2.1312Y-3.5389
M15
G01X2.1312Y-3.5861
M16
G05
G00X2.1312Y-3.716
M15
G01X2.1312Y-3.7633
M16
G05
T0
M30
