%TF.GenerationSoftware,KiCad,Pcbnew,(6.0.9)*%
%TF.CreationDate,2022-11-11T17:54:53+11:00*%
%TF.ProjectId,Tomie2-Macro-Pad,546f6d69-6532-42d4-9d61-63726f2d5061,rev?*%
%TF.SameCoordinates,Original*%
%TF.FileFunction,Soldermask,Bot*%
%TF.FilePolarity,Negative*%
%FSLAX46Y46*%
G04 Gerber Fmt 4.6, Leading zero omitted, Abs format (unit mm)*
G04 Created by KiCad (PCBNEW (6.0.9)) date 2022-11-11 17:54:53*
%MOMM*%
%LPD*%
G01*
G04 APERTURE LIST*
G04 Aperture macros list*
%AMRoundRect*
0 Rectangle with rounded corners*
0 $1 Rounding radius*
0 $2 $3 $4 $5 $6 $7 $8 $9 X,Y pos of 4 corners*
0 Add a 4 corners polygon primitive as box body*
4,1,4,$2,$3,$4,$5,$6,$7,$8,$9,$2,$3,0*
0 Add four circle primitives for the rounded corners*
1,1,$1+$1,$2,$3*
1,1,$1+$1,$4,$5*
1,1,$1+$1,$6,$7*
1,1,$1+$1,$8,$9*
0 Add four rect primitives between the rounded corners*
20,1,$1+$1,$2,$3,$4,$5,0*
20,1,$1+$1,$4,$5,$6,$7,0*
20,1,$1+$1,$6,$7,$8,$9,0*
20,1,$1+$1,$8,$9,$2,$3,0*%
G04 Aperture macros list end*
%ADD10C,1.750000*%
%ADD11C,3.987800*%
%ADD12C,2.250000*%
%ADD13R,1.200000X0.900000*%
%ADD14RoundRect,0.250000X0.450000X-0.262500X0.450000X0.262500X-0.450000X0.262500X-0.450000X-0.262500X0*%
%ADD15RoundRect,0.250000X-0.475000X0.250000X-0.475000X-0.250000X0.475000X-0.250000X0.475000X0.250000X0*%
%ADD16R,1.800000X1.100000*%
%ADD17RoundRect,0.250000X0.475000X-0.250000X0.475000X0.250000X-0.475000X0.250000X-0.475000X-0.250000X0*%
%ADD18R,0.500000X2.250000*%
%ADD19O,1.700000X2.700000*%
%ADD20R,1.400000X1.200000*%
%ADD21RoundRect,0.250000X-0.450000X0.262500X-0.450000X-0.262500X0.450000X-0.262500X0.450000X0.262500X0*%
%ADD22RoundRect,0.250000X0.250000X0.475000X-0.250000X0.475000X-0.250000X-0.475000X0.250000X-0.475000X0*%
%ADD23R,1.500000X0.550000*%
%ADD24R,0.550000X1.500000*%
%ADD25RoundRect,0.250000X-0.625000X0.375000X-0.625000X-0.375000X0.625000X-0.375000X0.625000X0.375000X0*%
G04 APERTURE END LIST*
D10*
%TO.C,MX4*%
X113823750Y-117475000D03*
D11*
X108743750Y-117475000D03*
D10*
X103663750Y-117475000D03*
D12*
X104933750Y-114935000D03*
X111283750Y-112395000D03*
%TD*%
D10*
%TO.C,MX1*%
X84613750Y-98425000D03*
X94773750Y-98425000D03*
D11*
X89693750Y-98425000D03*
D12*
X85883750Y-95885000D03*
X92233750Y-93345000D03*
%TD*%
D10*
%TO.C,MX3*%
X84613750Y-117475000D03*
X94773750Y-117475000D03*
D11*
X89693750Y-117475000D03*
D12*
X85883750Y-114935000D03*
X92233750Y-112395000D03*
%TD*%
D10*
%TO.C,MX2*%
X103663750Y-98425000D03*
D11*
X108743750Y-98425000D03*
D10*
X113823750Y-98425000D03*
D12*
X104933750Y-95885000D03*
X111283750Y-93345000D03*
%TD*%
D13*
%TO.C,D1*%
X97631250Y-100075000D03*
X97631250Y-96775000D03*
%TD*%
D14*
%TO.C,R3*%
X48768000Y-101774000D03*
X48768000Y-99949000D03*
%TD*%
D15*
%TO.C,C1*%
X74576000Y-94659000D03*
X74576000Y-96559000D03*
%TD*%
D13*
%TO.C,D2*%
X116681250Y-100075000D03*
X116681250Y-96775000D03*
%TD*%
D16*
%TO.C,SW1*%
X47319000Y-122373000D03*
X53519000Y-118673000D03*
X47319000Y-118673000D03*
X53519000Y-122373000D03*
%TD*%
D13*
%TO.C,D4*%
X116681250Y-119125000D03*
X116681250Y-115825000D03*
%TD*%
D15*
%TO.C,C7*%
X59309000Y-114432000D03*
X59309000Y-116332000D03*
%TD*%
D17*
%TO.C,C5*%
X77787500Y-106362500D03*
X77787500Y-104462500D03*
%TD*%
D18*
%TO.C,USB1*%
X52081250Y-94987500D03*
X51281250Y-94987500D03*
X50481250Y-94987500D03*
X49681250Y-94987500D03*
X48881250Y-94987500D03*
D19*
X54131250Y-94987500D03*
X46831250Y-94987500D03*
X46831250Y-90487500D03*
X54131250Y-90487500D03*
%TD*%
D14*
%TO.C,R1*%
X58293000Y-101901000D03*
X58293000Y-100076000D03*
%TD*%
D20*
%TO.C,Y1*%
X71167500Y-96520000D03*
X68967500Y-96520000D03*
X68967500Y-94820000D03*
X71167500Y-94820000D03*
%TD*%
D21*
%TO.C,R4*%
X77724000Y-115546500D03*
X77724000Y-117371500D03*
%TD*%
D17*
%TO.C,C2*%
X65559000Y-96681000D03*
X65559000Y-94781000D03*
%TD*%
D14*
%TO.C,R2*%
X52070000Y-101718750D03*
X52070000Y-99893750D03*
%TD*%
D22*
%TO.C,C3*%
X59558000Y-108204000D03*
X57658000Y-108204000D03*
%TD*%
%TO.C,C6*%
X73977500Y-119255500D03*
X72077500Y-119255500D03*
%TD*%
D23*
%TO.C,U1*%
X63261000Y-113984500D03*
X63261000Y-113184500D03*
X63261000Y-112384500D03*
X63261000Y-111584500D03*
X63261000Y-110784500D03*
X63261000Y-109984500D03*
X63261000Y-109184500D03*
X63261000Y-108384500D03*
X63261000Y-107584500D03*
X63261000Y-106784500D03*
X63261000Y-105984500D03*
D24*
X64961000Y-104284500D03*
X65761000Y-104284500D03*
X66561000Y-104284500D03*
X67361000Y-104284500D03*
X68161000Y-104284500D03*
X68961000Y-104284500D03*
X69761000Y-104284500D03*
X70561000Y-104284500D03*
X71361000Y-104284500D03*
X72161000Y-104284500D03*
X72961000Y-104284500D03*
D23*
X74661000Y-105984500D03*
X74661000Y-106784500D03*
X74661000Y-107584500D03*
X74661000Y-108384500D03*
X74661000Y-109184500D03*
X74661000Y-109984500D03*
X74661000Y-110784500D03*
X74661000Y-111584500D03*
X74661000Y-112384500D03*
X74661000Y-113184500D03*
X74661000Y-113984500D03*
D24*
X72961000Y-115684500D03*
X72161000Y-115684500D03*
X71361000Y-115684500D03*
X70561000Y-115684500D03*
X69761000Y-115684500D03*
X68961000Y-115684500D03*
X68161000Y-115684500D03*
X67361000Y-115684500D03*
X66561000Y-115684500D03*
X65761000Y-115684500D03*
X64961000Y-115684500D03*
%TD*%
D13*
%TO.C,D3*%
X97631250Y-119125000D03*
X97631250Y-115825000D03*
%TD*%
D25*
%TO.C,F1*%
X45847000Y-107058000D03*
X45847000Y-109858000D03*
%TD*%
D17*
%TO.C,C4*%
X61341000Y-101938500D03*
X61341000Y-100038500D03*
%TD*%
M02*
